<?xml version="1.0" encoding="utf-8"?>
<!-- Generator: Adobe Illustrator 25.0.0, SVG Export Plug-In . SVG Version: 6.00 Build 0)  -->
<svg version="1.1" id="Слой_1" xmlns="http://www.w3.org/2000/svg" xmlns:xlink="http://www.w3.org/1999/xlink" x="0px" y="0px"
	 viewBox="0 0 512 512" style="enable-background:new 0 0 512 512;" xml:space="preserve">
<style type="text/css">
	.st0{fill-rule:evenodd;clip-rule:evenodd;fill:url(#SVGID_1_);}
	.st1{fill:#FFFFFF;}
</style>
<g transform="matrix(1.25 0 0 1.25 130 50)">
	
		<linearGradient id="SVGID_1_" gradientUnits="userSpaceOnUse" x1="-666.5436" y1="600.7558" x2="-664.839" y2="600.7558" gradientTransform="matrix(-75 174.99 174.99 75 -154956.4219 71606.9453)">
		<stop  offset="0" style="stop-color:#37AEE2"/>
		<stop  offset="1" style="stop-color:#1E96C8"/>
	</linearGradient>
	<circle class="st0" cx="100.6545" cy="165.0455" r="204.5546"/>
	<path class="st1" d="M-27.7188,175.0516c23.9124-13.1716,50.6051-24.1647,75.5454-35.2141
		c42.907-18.098,85.9845-35.8823,129.4967-52.4393c8.4651-2.8211,23.6772-5.5792,25.1687,6.9668
		c-0.8165,17.7587-4.1763,35.4135-6.481,53.0683c-5.8486,38.8245-12.6108,77.5159-19.2026,116.2126
		c-2.2722,12.8886-18.4184,19.5622-28.7501,11.3135c-24.8295-16.7718-49.8499-33.3799-74.3624-50.5403
		c-8.0305-8.16-0.583-19.8759,6.5867-25.7023c20.4503-20.1554,42.1382-37.2767,61.5198-58.4719
		c5.2281-12.6261-10.2192-1.9859-15.3143,1.2751c-27.9967,19.2929-55.3081,39.7637-84.8254,56.7196
		c-15.0774,8.2998-32.6503,1.2069-47.7209-3.4246c-13.5125-5.5946-33.3134-11.2318-21.6623-19.7617L-27.7188,175.0516z"/>
</g>
</svg>
