<?xml version="1.0" encoding="utf-8"?>
<!-- Generator: Adobe Illustrator 25.0.0, SVG Export Plug-In . SVG Version: 6.00 Build 0)  -->
<svg version="1.2" baseProfile="tiny" id="Слой_1"
	 xmlns="http://www.w3.org/2000/svg" xmlns:xlink="http://www.w3.org/1999/xlink" x="0px" y="0px" viewBox="0 0 1920 1080"
	 overflow="visible" xml:space="preserve">
<path fill="#EAAE94" d="M1146.5,860.2c19.3-29.9,10.4-81.1,37.2-103.6c9.1-0.2,8.2-12.6,11.8-18.7c7.8,1.9,7.7,1.9,11.7-5.3
	c10.4-5.5,32.5-46.1,28.5-12.8c-15.7,130.3-56.5,238.8-173,311c-2.4-59.4,12.8-83.2-61.4-73.1c-17.1,5.1-2.8,51.9-6.6,68.8
	c-0.1,5.2,1.1,11.4-6.4,10.6c-111,16.8-192.6-62.5-256.2-143.4c64.7,0.5,75.1,2.8,60-65.9c-4.7-15.6-108.6,10.4-82-16
	c44-3.9,70.5,13.2,56.1-45.4c-0.2-1.7-3.7-3.9-5.9-4.2c-21.8-8.1-54.5,4.2-71.2-8.9c-3.7-23.5-15.1-50.1-14.8-72.2
	c4.6,9,9.7,20.4,20.7,22c5.2-1.8,8.1,1.8,11.4,4.3c15.3,14.5,42,13.6,52.3,32.8c27.2,57.1,28.5,40.5,11.7-9.6
	c-10.6-12.3-23.2-24.1-35-35.3c-3.5,7-5.1,4.7-8.2-1.9c-14.2-24.5-45.3-35.3-62.4-54.4c-8.2-55.9-9.4-118.6,14.1-170.9
	c43.4-69.7,0-175.7,74.1-226.2c50.6-8.7,101.4,20.2,151.4,27.1c70.4,22.3,135.5-25.6,206.4-20c74.3-1.9,96.9-21,107.9,73.2
	c-14.2,82.2,52.5,145.8,41.8,226.5c-4.3,57,7.9,118.3-45.6,139.3C1164.4,715.4,1148.4,791.8,1146.5,860.2z M1222.9,490.3
	c-7.6-24.8-42.5-31-49-53c-0.9-10.1,3.4-25.5-3.8-33.2c-28.9-3.3-29.3,4.1-26.4,30.2c1.2,9.3-8.7,6.8-14.8,8.9
	c-39.2,9.6-77,28.6-118.2,27.3c-15.7,6.1,19.6,15.8,10.7,24.6c-16.7,18.7-23.4,43.4-21.6,68.1c0,4,1.6,10.1-4.1,8.2
	c-41.4-2.9-51.2-6.3-66,33.3c-12.7,5.6-55.3,0.6-55.4,15.2c-12.1,112.9,98.1-10.5,128.8,32.2c25.6,76.3,15.6,21.4-16.8,72.4
	c8,36.7,73.5,3.6,37.1-48.9c-1.5-3.3-3.7-6.3,1.4-4.8c48.1,8.8,47.3-8,45.4-49.3c-10.8-15.4-57.2,4.1-58.9-23.6
	c-4.6-36.2-6.2-82.5,26.1-105.4c37.7-1.5,70.2-18.8,105.2-31.4c-4.8,26.4,28.4,24.9,31,13.6c0.2-4.8,3-5,6.5-4
	C1195.3,476.1,1207.6,485,1222.9,490.3z M857.3,838.3c34,51.8,122.7,46.4,178.5,34.6c15.5-9.9,39.7-13.2,48.6-30
	c3.6-9.1,17.9-4.4,22.9-14c-44.9-13.9-88.2-37-136.9-24.9c-25.3-4.9-50.4-3-74.7,5.6c-16.1,7.4-92.2,12-38.5,23.2
	c34.6,2,67.9-18.7,102.1-7.7c22,6.6,43.7-11.1,66.3-1.7c19.2,5.4,39.1,7.9,57.5,15.8c-26.6,16.1-53.9,34.2-85.4,20.5
	C946.1,847.5,905.5,877.4,857.3,838.3z M918,483.8c21.1-11.3,1.8-16.3-11.7-18.1c-33.3-3.8-63.6-17.9-95.6-26.5
	c-16.7-9.9-105.9,25.6-93.1,40.7c69.1-25.9,81.2-15.6,148.9,4.1c39.8,9.3,42.2-9.7,64,33.9C962.4,554.4,928.3,497,918,483.8z
	 M819.7,547.7c-33.9-10-59.8-15.1-9.1-30.4c8.4,1.1,7,23,17.9,29c22.8,11.9,57.3,9.9,82.3,3.1c18.9-9.6-17.5-29.3-20.7-42
	c3.3-3.2,17.8-2.5,7.9-6.3c-48.2-9.7-109.1-3.7-145.5,30.4C774.8,538.7,795.4,553.6,819.7,547.7z M1129.3,555.1
	c16.7,9,47.7-7.4,64-13.6c-30.7-34.5-92.4-46.4-138.5-36.9c-12.6,2.1,3.4,8.7-3.4,15.7c-8.1,7-16.5,13.9-18.7,25
	c-1.8,9.3,13.7,5.9,19.4,7.4c31.1,2.6,36.9-6.6,2.7-9.7c-9.9-8.5,8.7-32.7,22.7-31c-3.6,16.2,4.9,37.7,20.2,42.3
	c22.1,6.8,52.1-8.3,42.2-34.5C1184.1,543,1159.9,542.8,1129.3,555.1z M824.4,280c-17.4,6-95.6,15.1-97.5,33.4
	c9.6,21.9,4.5,66.5,26.1,76c29.3-13.9,75.5-15,96.4-36.1C840.3,334.6,843.6,285.8,824.4,280z M1119.5,589.4
	c8.5-1.6,30-4.8,29.9-17.7c-21.6,3.4-44.5,0.7-66.7-1.7C1060.6,575.2,1105.7,591.4,1119.5,589.4z M776,394.7
	c-12.5,1.6-46.1,11.6-50,23.5c4.5,7.5,4.6,23.8,15.2,24.4C763.4,435.3,806.1,421.6,776,394.7z M888.5,567.9
	c-18.9-1.7-44.9,8-66.6-0.3C808.6,583.5,882.9,591.2,888.5,567.9z M948.8,698.8c-48.9,9.5-18.9,17.1,10.2,20.4
	C976.2,718.8,964.2,695.5,948.8,698.8z M968.1,766.6c2.2-33.9-16.3-0.8-7.3,13.8C971.6,795,969.2,774.4,968.1,766.6z"/>
<path d="M914.7,1047.4c-78.1-19-143.5-82.4-192.4-143.9c-31.1-45.6-34-103.2-46.4-155.6c-2-11.5-18,1.3-26.1-6
	c-16.8-8.9-18.6-29.2-28.7-43.5c-13.7-18.2-26.9-37.5-27.2-60.9c0.1-45.6-12.7-100.9,1.7-142.7c11.4-8.5,35.5-3,26.8-21.5
	C596.6,407.4,606,340,612.3,271.9c-27.2,38.2-33.2,5.3-22.5-23.9c7.3-11.3-12.3-19.4-3.3-31.8c4.3-20.6,38.4-25.8,32.6-34.8
	c-10.7-16.5-20.6-40-5.3-57c13.6-26.5,17,5.4,34.8,11c4-59.5,60.4-95.1,114.6-104c-4.9,3.2,81-14.2,46.6,7.8
	C800,41.8,790.7,45.7,782,51c43-5.2,95-5.2,139.7-18.4c0,0,19.3-4.5,19.3-4.5c-22.2,35.7,53-5.9,84.6,12.5
	c14.2,4.7-10.8,10.8-15.5,14.9c23.3,7.3,48-18.2,67.8-27.4c21.1,8.3,11.9,40.7,29.2,47.7c13.8,0.2,27,4.3,38.9,10.1
	c24.5,7,45.6-21.9,71.1-5.8c10,7.7-16.4,16.8-20.7,23.4c12.6,30.3,68.7,17.3,97.2,33c15.8,2.7,60.3,51.9,34.5,54.3
	c-15.4-7.8-33.6-15.1-50.8-8.4c45.1,14.9,67.1,71.3,55.8,112.8c-2.1-2-4.2-3.6-5.9-5.6c-38.9-50.1-10.8,5.4-16.4,32.6
	c-1,53.2-0.6,106.1-21.9,156c-3.6,18.4,43.6,7,39.2,34.1c-4.8,56.5,7.9,119.2-18.9,171c-15.2,23-18.5,83.2-59.4,63.9
	c-5.3-5.4-6.7,0.2-8.2,5c-9.9,115.2-65.2,222.6-166.3,282.9C1020.4,1059.3,973.8,1046.2,914.7,1047.4z M1146.5,860.2
	c1.8-68.6,17.7-144.7,68.4-172.1c53.4-20.9,41.4-82.5,45.6-139.4c10.7-80.7-56-144.4-41.8-226.5c-11.4-94-32.6-75.2-107.9-73.2
	c-70.9-5.5-136,42.3-206.4,20c-50-7-100.8-35.8-151.4-27.1C679,292.3,722.4,398.4,679,468.1c-23.5,52.2-22.2,115-14.1,170.9
	c17.1,19.1,48.2,29.9,62.4,54.4c3.6,6.6,4.1,8.8,8.2,1.9c11.8,11.1,24.4,23,35,35.3c17,50.4,15.2,66.4-11.7,9.6
	c-10.3-19.1-36.9-18.3-52.3-32.8c-3.3-2.5-6.2-6.1-11.4-4.3c-10.9-1.6-16.2-13-20.7-22c-0.4,22.1,11.1,48.7,14.8,72.2
	c16.6,13,49.4,0.8,71.2,8.9c2.2,0.4,5.7,2.5,5.9,4.2c14.2,60.1-11.7,40.7-56.1,45.4c-27,26.4,78,0.4,82,16
	c15.4,68.3,3.9,66.7-60,65.9c63.7,80.8,145.2,160.2,256.2,143.3c7.5,0.5,6.4-5.2,6.4-10.6c3.7-15.8-10.4-64.9,6.6-68.8
	c74-10.6,59.2,14.7,61.4,73.1c116.6-72.4,157.3-180.6,173-311c1.8-30.9-13.3,4-23.8,8c-16.4,22.9-13.6-1.9-21.6,24.6
	C1155.9,771.7,1167,827.7,1146.5,860.2z M1205.9,87.5c-23-15.6-82.5,64-85.9,38.7c36.5-33,33.9-28.7-11.8-41.9
	c-11.6-1.6-13.3,41.3-25.4,51.3c-24.9,41.8-69.4,67-93,109.9c-9.1,9.2,1.2-22.1,5.5-26.8c35.1-49.7,100.1-87.4,90.4-157.6
	c-5.4-51.3-19.5,6.8-62.5,8.2c-14.1,2.1-33,5.4-45.3-2.9c0.6-11.2,37.9-19.2,8.9-17c-37.4-0.2-167.4,56.2-71.2,0.5
	c3.8-10.7-41,11.3-54.9,6.5c-39.5-1.9-75.7,6-110.7,23.8c-3-18.6,20.1-24,25.4-36.6c-53.6,8.1-110.8,38.5-124.1,95.1
	c-7.1,14.3-21-6.3-28.6-10.4c-12.6,19.5,15.6,54.2,8.3,61.8c-14.3,6.1-27.9,16.9-33.1,31.5c37.5-9.1,20.1,2.5,6.1,23.1
	c-3.5,5.8-19.8,32.3-7.5,26.9c3.2-4.5,20.1-17.9,20.8-5.4c4.1,31.6,2.1,63-3,94.3c-3.8,64.5,23.4,125.6,36.2,188
	c6.3,13.1,2.3-44.9,9.5-55.7c9.8-37,27.5-72.6,30.8-111c-17.5,25.1-9.6,3.8-2.7-11.5c-17.1,6.4,7.7-23.4,5.6-35.5
	c-4.9,4.8-20,24.1-22.5,18.8c23.5-30.8,25.8-71.9,51.7-101.3c-30.3-1.1-59.3,0.5-89.1,5c14-10.6,34.2-12.3,51.6-13.4
	c14.7-2.9,38.7,6.2,48.3-5.9c-26.7-7.5-56.2-10.5-77.1-30.8c-0.4-11.1,62.8,26.6,85.1,21c-36-13.2-41.3-27.8,1-7.7
	c54,10,108.2,19.6,161.7,32.1c65.6,14.4,66.3,18.1,126.5-8.4c68.9-19.4,141.7,5.7,206.4-33.1c-71.6,63.5-26.4-3.7-2.8,97.9
	c9.4,43.8-8.3,62.1,7.9,95.6c-16.9-11.4-8.3,1.2,0.7,14c28.6,16.1,23.6,137.5,33.9,74.1c4.5-28,11.2-55,23.3-80.6
	c7.7-30.2-7.1-60.9-3.4-91.9c5.9-25.9-27-103.4,23.7-57.3c3.1,3.4,6.9,3.6,5-2c-8.2-31.4-24.3-57.2-53.7-73
	c-13.4-20.9,37.4-22.4,51.1-14.6c-22.9-35.3-71.6-29.7-105-39.8c-2.1-9.2-17.2-7.6-24.1-12.8c-8.4-3.7-8.9-3.7-14.1,3.9
	c-10.8,17.3-32.8,37-52.5,34.2C1160.2,142.5,1169.9,99.2,1205.9,87.5z M1266.3,672.9c28.9-24.7,3.8-48,12.4-76.4
	c15.4-28.4,23.1-61.3,37-89.1c10.1-7.1-34.4-12.9-31.7-2.9c-6.7,42.6-16.6,84.6-22.5,127.3c-3.3,32.1-7,64.3-12.9,96
	c15.8,36.8,38.1-22.6,44.5-38.1c25.1-45.3,30.1-137.7,23.4-170.7c-14.1,20.1,3.8,48.2-8.6,65.6c-6.6-6.4-9.7-13.3-9.3,0.6
	C1312.3,612.8,1300.7,671.1,1266.3,672.9z M613,584.5c-23.1-3.3-6,40.5-8.1,55c0.6,32.6,28.6,51.9,40.6,79.9
	c47.4,65,1.3-100.5,4.9-119c-6.8-32.6-6.3-78.2-27.3-102.4c-33.7,0.7-24.1,14.8-15.3,39c69.7,106.9,15,52.2,41,139.9
	c-29.6-21.3-41.6-56.8-30.3-90.8C627.6,575.8,611.9,568.6,613,584.5z M751.5,885.1c8.2,0.4,37.3,3.9,40.1-8.1
	c-4.7-13.6,2-40.1-10-47.1c-17.2,5.3-66.3-4.3-73,8.6C715.2,863.7,717.9,893.5,751.5,885.1z M999.6,1038.1
	c17-4.9,56.8,8.8,54.8-16.7c-3.2-17.1,6.3-44.8-4.4-56.6C973.3,957.3,1006.3,970.9,999.6,1038.1z M692,765.3
	c4.8,55.1,22.5,33.6,65.4,37.2c11.2-2.5,0.1-21.7,2.1-30.3C745.3,758.6,712.7,768.7,692,765.3z M600.7,559.1c5.5-4.5,5.2-9.8,0-14.7
	C600.7,549.3,600.7,553.7,600.7,559.1z"/>
<path fill="#EFC684" d="M1205.9,87.5c-35.9,11.8-45.7,55-78.7,71.3c19.7,2.7,41.6-16.9,52.5-34.2c5.2-7.7,5.7-7.7,14.1-3.9
	c7,5.2,22,3.6,24.1,12.8c33.3,10.1,82.1,4.5,105,39.8c-13.4-8.1-64.8-6.1-51.1,14.6c29.5,15.8,45.5,41.6,53.7,73
	c2.4,10.9-8.9-1.5-12.7-5.1c-4.2-6.4-26.1-11.2-22.5,1.2c6.5,20.4,6.3,42.1,6.6,63.3c-3.7,31,11.1,61.7,3.4,91.9
	c-12.1,25.7-18.7,52.7-23.3,80.6c-10.2,63.8-5.4-58.3-33.9-74c-9.2-13.2-17.3-25-0.7-14c-16.2-33.4,1.5-51.9-7.9-95.6
	c-23.7-101.6-68.8-34.3,2.8-97.8c-64.7,38.8-137.4,13.7-206.4,33.1c-60,26.5-61.3,22.7-126.5,8.4c-53.5-12.5-107.7-22.2-161.7-32.1
	c-39.6-19.3-39.5-6.7-1,7.7c-23.8,5.3-82.9-31.3-85.1-21c20.9,20.3,50.4,23.4,77.1,30.8c-9.6,12.1-33.6,2.9-48.3,5.9
	c-17.4,1.1-37.7,2.8-51.6,13.4c29.8-4.5,58.8-6,89.1-5c-25.9,29.3-28.2,70.4-51.7,101.3c2.5,5.5,17.6-14.3,22.5-18.8
	c2.1,12-22.7,42-5.6,35.5c-6.9,15.3-14.8,36.6,2.7,11.5c-3.3,38.4-20.9,73.9-30.8,110.9c-8.2,12.9-2,66.5-9.5,55.7
	c-19.2-77.9-48.2-155.1-30.8-236.1c-2.5-12.6,4.7-48.1-8.4-51c-42.1,31.2-3.8-22.4,8.4-37.3c9.1-18.4-27.3,8.4-20.4-7.3
	c36.8-46.4,40-4,21.4-67.7c-4.7-45.7,18,9.9,30.5-10.3C653.3,70.7,826,11,754.4,64.8c-17.7,33.1,32.8-6.6,48.5-4.9
	c35-5.3,71.5,0.5,105.4-11.8c27.5-6.5-24.8,19.8-32.6,27c7.8,4.5,170.5-51.4,104.7-14c-4,26.3,87.9,1.8,93.5-20.6
	c24.1,2.3,9.7,71-4.7,92c-22.7,42.5-79.5,64.7-83.2,116.8c33.9-56.1,103.5-90.5,114.5-159.4c6.6-14.9,32.1,5.4,44.9,5.9
	c4.6,12.3-25.3,22.9-29.7,37.1C1151.7,130,1171.2,78.9,1205.9,87.5z M922.7,243.7c-20.2-24.9-22.2-64.4-46.5-89.3
	c-21.6-19.5-36.8-44.2-28.7-72c-28.8,28.2-7.8,63.5,20.4,82.1C889.7,188.4,890.2,228.3,922.7,243.7z M795.7,119.2
	c-13.9,57.3,66.4,101.2,102.9,114.9C868.5,191.1,806.4,178.2,795.7,119.2z M698.6,128.2c11.5,28.1,9.4-1.1,16-14.3
	c9.2,25.9,22.4-50.8,2.7-11.9c-6.1,5.6-2.8-6.9-6.8-7.2c-11.9,19-32.8,42.4-16.3,64.7C709.4,168.9,693.4,136.4,698.6,128.2z
	 M1147.9,203.1c25.7,12.6,65.9-6,76.9-34.5c-15.1,12.6-41.6,26.1-16.2,2C1188.9,177.7,1167.9,193.2,1147.9,203.1z M1283.9,312.5
	c3.5-27.2-21.1-48.6-45.8-53.8C1221.1,263.2,1284.2,313.8,1283.9,312.5z M623.9,353.2c13.6-10.5,37-34.3,41.4-53.9
	C657.5,304,638,328.6,637,321c10-13.6,27.7-22.3,35.6-36C642,293.4,624.8,322.8,623.9,353.2z M1085.7,215.1
	c35.2,2.3,80.2-21.7,101.4-52.2C1158.1,179.9,1120.5,201.5,1085.7,215.1z M1094.8,195.2c25.7,4.9,85-32,84.9-52.5
	C1155.1,166.7,1125,179.9,1094.8,195.2z M1244.7,229.7c-57.8,10.7,16.5,11.2,31.4,21.9C1294.2,245.3,1255.1,227.3,1244.7,229.7z
	 M970.2,88.6c-2.3-6.7-19.4,11.1-13.6-2.2c-0.1-0.9-1.9-2.7-2.6-2.6c-11.6,2.9-26.4,20.5-22.3,33c1.1,2.5,4,3.2,4.9,0.5
	C945.2,105,962.6,102.8,970.2,88.6z M959.7,230.2c-3.8-31.3,5.6-59.6,20.4-87.8C957.7,151.9,943.9,212.9,959.7,230.2z M769.8,110.9
	c-9.8,15.7,8.4,63.3,25.4,68.7C786.9,156.9,778.4,134.1,769.8,110.9z M900.7,92.6c-21.9-5.1-30,44.2-11.3,54.2
	C887.7,128.7,886.3,108.7,900.7,92.6z M710.2,260c-13.7-8.4-68.3,15.8-71.7,26.3C662.8,277.4,686.5,268.7,710.2,260z M764.8,154.3
	c1.1-15.3-9.3-37.4-12.2-55.6C742,107.9,750.6,143.2,764.8,154.3z M912.1,128.3c6.5-17.1,17.5-31.2,28.8-45.2
	C918.5,82.1,908.5,109.6,912.1,128.3z M1281.4,272.7c-0.1-8.5-30.5-25.6-45.2-25.6C1249.2,261,1267.1,263.7,1281.4,272.7z
	 M626.2,375.3c10.5-16,20.7-31.3,30.8-46.7C647.5,328.5,624.1,363.1,626.2,375.3z"/>
<path fill="#EAAE94" d="M1266.3,672.9c34.4-1.8,46-60.1,32.4-87.6c-0.4-13.8,2.7-7.1,9.3-0.6c12.3-17.4-5.5-45.6,8.6-65.6
	c6.7,33.2,1.8,125.2-23.4,170.7c-6.4,15.7-28.7,74.9-44.5,38.1c5.9-31.8,9.6-63.9,12.9-96c5.9-42.7,15.8-84.7,22.5-127.3
	c-2.6-10.5,41.7-3.8,31.7,2.9c-13.9,27.8-21.6,60.7-37,89.1C1270.2,624.8,1295.1,648.4,1266.3,672.9z"/>
<path fill="#EAAE94" d="M613,584.5c-1-15.8,14.6-8.7,5.4,1.4c-11.3,34,0.7,69.5,30.3,90.8c-25.9-87.5,28.6-33.2-41-139.9
	c-8.8-23.9-18.5-38.4,15.3-38.9c21.1,24.3,20.5,69.8,27.4,102.4c-3.6,18.6,42.5,184-4.9,119c-11.9-28-40-47.2-40.6-79.9
	C607,624.9,589.9,581.3,613,584.5z"/>
<path fill="#FFFFFF" d="M751.5,885.1c-33.7,8.5-36.3-21.4-43-46.5c6.6-13,55.9-3.3,73-8.6c12.1,7,5.4,33.5,10.1,47.1
	C788.9,889,759.7,885.4,751.5,885.1z"/>
<path fill="#FFFFFF" d="M999.6,1038.1c6.7-67.4-26.3-80.7,50.4-73.3c10.8,11.9,1.2,39.5,4.4,56.6
	C1056.5,1046.9,1016.6,1033.1,999.6,1038.1z"/>
<path fill="#FFFFFF" d="M692,765.3c20.7,3.4,53.3-6.6,67.5,6.9c-1.9,8.6,9,27.9-2.1,30.3C714.4,798.8,696.9,820.4,692,765.3z"/>
<path fill="#EAAE94" d="M600.7,559.1c0-5.4,0-9.8,0-14.7C605.9,549.3,606.2,554.6,600.7,559.1z"/>
<path d="M1222.9,490.3c-15.3-5.3-27.6-14.2-42.6-19.7c-3.5-1-6.3-0.7-6.5,4c-2.3,11.2-35.9,13-30.9-13.6
	c-35,12.6-67.6,29.9-105.2,31.4c-32.4,22.9-30.7,69.2-26.1,105.4c1.7,27.8,48,8.2,58.9,23.6c1.9,41,2.7,58.2-45.4,49.3
	c-5-1.9-3,2-1.4,4.8c51.5,81-89.3,77.2-15.6,26.6c25-4.6-6.6-32.9-4.7-50.1c-30.8-42.6-141,80.7-128.8-32.2
	c0.3-14.7,42.7-9.5,55.4-15.2c15.1-39.7,24.3-36.1,66-33.3c5.9,1.9,4.1-4.3,4.1-8.2c-1.8-24.8,4.8-49.4,21.6-68.1
	c8.9-8.8-26.4-18.5-10.7-24.6c41.1,1.4,78.9-17.7,118.2-27.2c6-2,16,0.4,14.8-8.9c-3.2-25.6-2.1-33.9,26.4-30.2
	c7.2,7.7,2.9,23.1,3.9,33.2C1180.4,459.3,1215.3,465.5,1222.9,490.3z M1003,640.4c-2.5-18.1,7.6-53.7-6.8-64.4
	c-16.2-0.9-50.9-4.9-54.2,15.3C940.3,673.4,942.8,629.7,1003,640.4z M937.6,634.7c-0.2-5.2,3.6-26.4-6.9-24.1
	c-14,6.6-43.4,0.9-49.3,15.1c3.5,10-3.1,29.1,7.6,33.8C907.7,661.2,943.6,662.3,937.6,634.7z M1008.2,613.8
	c2.2,15.4-6.9,41.9,12.8,48.3c37.5,8.5,45.9,5,43.4-34.3C1057.9,616.1,1023.4,624.2,1008.2,613.8z M1149.1,440.5
	c2.1,9.8-4.4,33.6,8.4,36.8c7.8,0.7,9.3-7.4,9.5-13.5c0.4-14.4,0.7-28.9,1-43.4c0.9-10.4-3.6-10.5-12.8-10
	C1143,411.7,1151.6,431.8,1149.1,440.5z"/>
<path d="M857.3,838.3c48.4,39.2,88.7,9.3,140.3,21.5c31.5,13.7,58.7-4.4,85.4-20.5c-18.3-7.8-38.3-10.4-57.5-15.8
	c-22.5-9.4-44.3,8.3-66.3,1.7c-34.2-11-67.4,9.8-102.1,7.7c-53.8-11.3,22.6-15.8,38.5-23.2c24.4-8.7,49.4-10.6,74.7-5.6
	c22.4,0.9,43.7-10.4,65.2,0.3c10.6,9.2,84.6,20,65.6,30c-5.2,3.5-15.2,1.2-16.8,8.5c-8.9,16.9-33.2,20.1-48.6,30
	C980,884.6,891.3,890,857.3,838.3z"/>
<path d="M918,483.8c10.4,13.2,44.4,70.6,12.6,34.1c-21-42.9-25-25-64-33.9c-67.4-19.7-80.1-30-148.9-4.1
	c-11.9-16,75.9-50.1,93.1-40.7c32,8.6,62.3,22.7,95.6,26.5C919.6,467.5,939.2,472.5,918,483.8z"/>
<path d="M819.7,547.7c-24.3,5.9-44.9-8.9-67.1-16.2c36.4-34.1,97.3-40,145.5-30.4c9.9,3.8-4.7,3.2-7.9,6.3
	c3.4,12.6,39.5,32.4,20.7,42c-25,6.9-59.5,8.9-82.3-3c-11-6.1-9.5-27.8-17.9-29C759.9,532.5,785.7,537.7,819.7,547.7z M870.1,547.5
	c28.3,3.5,39.3-15.9,12.9-35.8C882.6,525.5,878.4,536.7,870.1,547.5z M834.6,525.3c4-0.1,8.7-5.2,8.5-10.9
	C838.7,498.2,815.7,524.1,834.6,525.3z"/>
<path d="M1129.3,555.1c28.6-13,57.9-10.9,11.8-28.6c4.9,23.4-24.9,33.5-43.4,27.9c-15.3-4.6-23.8-26.1-20.2-42.3
	c-14-1.8-32.6,22.5-22.7,31c34.3,3.1,28.2,12.3-2.7,9.7c-5.8-1.5-21.1,1.9-19.4-7.4c2.3-11.1,10.6-18,18.7-25
	c6.8-7-9.2-13.7,3.4-15.7c46-9.6,107.8,2.4,138.5,36.9C1177,547.7,1145.9,564,1129.3,555.1z M1102.2,522.3c1.3-8.9-12.4-11-13.2-2.5
	C1087.8,528.5,1101.5,530.4,1102.2,522.3z"/>
<path d="M824.4,280c19.3,5.7,15.9,54.7,25,73.2c-20.9,21.1-67.1,22.2-96.4,36.1c-21.6-9.5-16.4-54.1-26.1-76
	C728.3,295.2,807.3,285.9,824.4,280z M750.7,383.1c15.6-8.4,95.2-19,89.3-36.3c-6.5-13.9-6-62.4-23.5-60.2
	C731.9,317,723.6,282.1,750.7,383.1z"/>
<path d="M1119.5,589.4c-13.8,2-58.8-14.3-36.8-19.4c22.3,2.4,45.1,5.1,66.7,1.7C1149.5,584.7,1128,587.8,1119.5,589.4z"/>
<path d="M776,394.7c30,26.9-12.6,40.6-34.8,47.9c-10.5-0.6-10.6-16.9-15.2-24.4C729.9,406.3,763.6,396.3,776,394.7z M741.2,435.5
	c15.1-8.6,49.1-7.9,34.4-33.3c-12.9-3.3-26.9,10.6-39.7,14.4C730.7,420.8,737,433.4,741.2,435.5z"/>
<path d="M888.5,567.9c-5.7,23.2-79.9,15.6-66.6-0.3C843.6,576,869.7,566.2,888.5,567.9z"/>
<path d="M948.8,698.8c15.4-3.3,27.4,20,10.2,20.4C929.9,715.9,900,708.3,948.8,698.8z"/>
<path d="M968.1,766.6c1.1,7.8,3.5,28.4-7.3,13.8C951.7,765.8,970.3,732.7,968.1,766.6z"/>
<path d="M922.7,243.7c-32.5-15.4-33-55.2-54.9-79.2c-28.1-18.5-49.2-53.9-20.4-82.1c-8.1,27.8,7.1,52.5,28.7,72
	C900.4,179.2,902.4,218.8,922.7,243.7z"/>
<path d="M795.7,119.2c10.8,59.1,72.8,71.9,102.9,114.9C862.1,220.4,781.8,176.5,795.7,119.2z"/>
<path d="M698.6,128.2c-5.2,8.2,10.7,40.7-4.3,31.3c-16.5-22.3,4.3-45.7,16.3-64.7c3.9,0.3,0.6,12.7,6.8,7.2
	c19.7-38.9,6.5,37.8-2.7,11.9C708,127.1,710.2,156.3,698.6,128.2z"/>
<path d="M1147.9,203.1c20.1-9.9,41-25.4,60.7-32.5c-25.4,24.2,1.2,10.6,16.2-2C1213.7,197.1,1173.5,215.7,1147.9,203.1z"/>
<path d="M1283.9,312.5c0.2,0.4-62.5-48.5-45.9-53.8C1262.8,263.9,1287.4,285.3,1283.9,312.5z"/>
<path d="M623.9,353.2c0.8-30.4,18.1-59.8,48.7-68.1c-7.8,13.7-25.6,22.4-35.6,36c1,7.5,20.4-16.9,28.3-21.8
	C661,318.8,637.6,342.7,623.9,353.2z"/>
<path d="M1085.7,215.1c34.7-13.6,72.4-35.3,101.4-52.2C1166,193.5,1120.9,217.4,1085.7,215.1z"/>
<path d="M1094.8,195.2c30.2-15.3,60.3-28.5,84.9-52.5C1179.8,163.3,1120.5,200.1,1094.8,195.2z"/>
<path d="M1244.7,229.7c10.4-2.4,49.4,15.6,31.4,21.9C1261.2,240.9,1186.9,240.4,1244.7,229.7z"/>
<path d="M970.2,88.6c-7.7,14.2-25,16.4-33.5,28.7c-0.9,2.7-3.7,2-4.9-0.5c-4.2-12.5,10.6-30.1,22.3-33c0.7-0.1,2.5,1.6,2.6,2.6
	C950.9,99.7,967.9,81.9,970.2,88.6z"/>
<path d="M959.7,230.2c-15.7-17.3-2-78.3,20.4-87.8C965.3,170.6,955.9,198.9,959.7,230.2z"/>
<path d="M769.8,110.9c8.6,23.2,17,46,25.4,68.7C778.3,174.2,760,126.6,769.8,110.9z"/>
<path d="M900.7,92.6c-12.6,16.1-15.9,34-10.1,53.7C869.9,140.9,878.8,86.3,900.7,92.6z"/>
<path d="M710.2,260c-23.7,8.7-47.5,17.4-71.7,26.3C641.9,275.8,696.6,251.6,710.2,260z"/>
<path d="M764.8,154.3c-14.2-11-22.8-46.4-12.2-55.6C755.5,116.8,766,139,764.8,154.3z"/>
<path d="M912.1,128.3c-3.6-18.7,6.5-46.3,28.8-45.2C929.6,97.2,918.5,111.2,912.1,128.3z"/>
<path d="M1281.4,272.7c-14.4-9-32.3-11.7-45.2-25.6C1250.9,247.1,1281.3,264.2,1281.4,272.7z"/>
<path d="M626.2,375.3c-2.1-12.2,21.3-46.8,30.8-46.7C646.9,343.9,636.7,359.3,626.2,375.3z"/>
<path fill="#FFFFFF" d="M1003,640.4c-60.2-10.7-62.6,33-61-49.1c3.3-20.3,37.9-16.2,54.2-15.3C1010.6,586.7,1000.5,622.3,1003,640.4
	z"/>
<path fill="#FFFFFF" d="M937.6,634.7c6,27.5-29.9,26.4-48.6,24.8c-10.7-4.7-4.1-23.8-7.6-33.8c5.8-14.3,35.3-8.4,49.3-15.1
	C941.2,608.4,937.3,629.6,937.6,634.7z"/>
<path d="M766.6,535.8c25.6,18.2,113.8,22.9,144.3,13.6c25.5-11.8-41.2-37.5-10.4-47.5c-7.8-3.2-52.4-9.3-84.6-0.8
	C799.4,505,727.1,528.4,766.6,535.8z"/>
<path fill="#FFFFFF" d="M1008.2,613.8c15.3,10.5,49.6,2.3,56.3,14c2.4,39.3-6,42.8-43.4,34.3
	C1001.3,655.7,1010.4,629.2,1008.2,613.8z"/>
<path fill="#FFFFFF" d="M1149.1,440.5c2.5-8.7-6.1-28.8,6-30.2c9.2-0.4,13.7-0.3,12.8,10c-0.3,14.5-0.5,28.9-0.9,43.4
	c-0.2,6.1-1.6,14.2-9.5,13.5C1144.7,474.1,1151.2,450.3,1149.1,440.5z"/>
<path fill="#FFFFFF" d="M870.1,547.5c8.3-10.8,12.5-22.1,12.9-35.8C909.4,531.7,898.3,551,870.1,547.5z"/>
<path fill="#FFFFFF" d="M834.6,525.3c-18.9-1.2,4.1-27.1,8.5-10.9C843.2,520.1,838.5,525.2,834.6,525.3z"/>
<path d="M1108,557.9c-23.5-8.9-106,8.3-62.6-32.4c7.1-3.9,11.6-12.4,2.7-18c16.8-7.9,36.1-8,53.3-5.3c32,2.3,61.9,14.6,88.4,33
	C1210.1,549.9,1116.5,561.9,1108,557.9z"/>
<path fill="#FFFFFF" d="M1102.2,522.3c-0.7,8.1-14.4,6.1-13.2-2.5C1089.8,511.3,1103.5,513.4,1102.2,522.3z"/>
<path fill="#FFFFFF" d="M750.7,383.1C723.6,282,732,317,816.5,286.5c17.5-2.3,17,46.3,23.5,60.2C846.2,364,766.3,374.7,750.7,383.1z
	"/>
<path fill="#FFFFFF" d="M741.2,435.5c-4.2-2.1-10.4-14.7-5.3-18.9c12.6-3.5,27.8-18.7,39.9-14C789.9,427.8,756,426.9,741.2,435.5z"
	/>
<path fill="#FFFFFF" d="M1077.5,512.1c-2.5,22.5,7.3,42.5,28.4,44.3c-1.4,1.6-29.4-2.2-31.8-2.3c3.7-11.9-26.8-9.3-23-14
	C1056.9,517,1066.6,511.4,1077.5,512.1z"/>
<path fill="#FFFFFF" d="M1113.6,555.9c-3.7,0.5-8.3,0.3-11.6,1.2c21,6.4,47.9-5,66-15.2C1125,505.1,1156.3,552.3,1113.6,555.9z"/>
<path fill="#FFFFFF" d="M810.6,517.3c-73.1,25.1,4,19,5,32.2c0,0,20.6,2.1,20.6,2.1C813,542.8,819.6,515.9,810.6,517.3z"/>
</svg>
