<?xml version="1.0" encoding="utf-8"?>
<!-- Generator: Adobe Illustrator 25.0.0, SVG Export Plug-In . SVG Version: 6.00 Build 0)  -->
<svg version="1.1" id="Слой_1" xmlns="http://www.w3.org/2000/svg" xmlns:xlink="http://www.w3.org/1999/xlink" x="0px" y="0px"
	 viewBox="0 0 1920 1080" style="enable-background:new 0 0 1920 1080;" xml:space="preserve">
<style type="text/css">
	.st0{fill:#FFFFFF;}
</style>
<g>
	<path class="st0" d="M1082.9752,28c129.6749,0,259.3499,0,389.0248,0c0,341.3333,0,682.6667,0,1024
		c-145.6759,0-291.3518,0-437.0278,0c0.2283-5.1566,4.22-5.5179,7.8551-5.7917c11.8987-0.8965,23.0597-4.4189,32.6293-11.291
		c19.0242-13.6615,37.9325-27.5455,56.1129-42.2936c8.4307-6.8391,15.1917-15.7874,22.4561-24.0037
		c28.0199-31.692,50.5343-66.8817,64.6846-106.836c5.4089-15.2722,8.5592-31.4233,11.799-47.3649
		c4.2092-20.7117,7.4235-41.6245,11.2301-62.4207c0.4783-2.6126,1.953-5.0427,3.1224-7.9454
		c2.2142,1.2987,3.6536,2.0811,5.0308,2.9607c9.2227,5.8897,18.3353,5.5672,26.9866-0.9594
		c11.4543-8.6412,17.8252-20.5769,20.0239-34.4774c0.959-6.0621,2.189-11.6296,5.6838-16.7452
		c2.5267-3.6988,4.7814-7.6447,6.6693-11.7071c5.4531-11.7333,12.6816-22.9498,13.6769-36.2192
		c1.6189-21.5859,2.9447-43.207,3.745-64.8373c0.8623-23.3061,0.8608-46.643,1.4917-69.9596
		c0.1836-6.7877-1.1113-11.7061-7.6555-15.7225c-8.074-4.9553-16.6545-7.3243-25.6385-9.0665
		c-7.0952-1.3759-8.0262-2.4263-5.9152-9.3156c3.6075-11.7728,8.0215-23.3137,11.2592-35.1805
		c3.4097-12.4971,6.7849-25.142,8.4076-37.9464c1.4109-11.1325,0.1387-22.5833,0.4419-33.883
		c0.4376-16.3192,1.3398-32.6255,1.8329-48.9437c0.418-13.8358,0.5005-27.6915-3.0684-41.2276
		c-1.1628-4.4103-2.8035-8.6947-4.2256-13.0367c0.2567-0.3577,0.5134-0.7154,0.7703-1.0731
		c2.351,1.1957,5.2894,1.8586,6.9458,3.6844c5.5732,6.1432,10.6307,12.751,16.017,19.0691c1.6766,1.9668,3.7709,3.578,5.895,5.5582
		c3.5269-7.3549,3.8097-33.5601,0.4912-45.454c-8.5674-30.7077-24.1423-55.7381-56.3014-67.3703
		c2.962-1.3113,5.6064-2.1692,8.3009-2.377c15.3394-1.1828,29.1849,3.7129,42.4701,10.7453
		c5.1157,2.708,7.8741,1.4215,7.6097-4.3141c-0.1995-4.3264-0.8667-9.1741-3.0223-12.7739
		c-9.537-15.927-21.585-29.4942-39.0743-37.1647c-17.2047-7.5456-35.0234-11.4072-53.9542-9.4439
		c-3.6194,0.3754-7.7538-0.0983-11.0468-1.5499c-6.8035-2.9992-13.2129-6.8978-19.7603-10.4707
		c-4.9119-2.6805-9.786-5.4301-15.0323-8.3465c1.1113-1.417,1.6671-2.5018,2.5394-3.1782
		c6.7977-5.2714,13.5497-10.6131,20.5366-15.6253c4.1483-2.9759,4.6149-5.2855,0.1842-7.732c-3.26-1.8-7.0663-3.0256-10.764-3.5429
		c-13.067-1.828-25.5482,0.1158-37.0973,6.8782c-7.323,4.2878-13.6863,7.1626-23.2384,2.5199
		c-11.9052-5.7864-25.0621-9.9243-38.902-10.1094c-4.5536-0.0609-7.6144-2.7412-8.394-7.7152
		c-0.6429-4.1026-1.4299-8.2707-2.8733-12.1414c-2.9303-7.8582-4.7961-16.2781-11.337-22.4234
		C1083.3838,32.3202,1083.4742,29.8464,1082.9752,28z"/>
	<path class="st0" d="M919.9648,1052c-157.2999,0-314.5998,0-471.9648,0c0-341.3333,0-682.6666,0-1024
		c104.6661,0,209.3104,0,313.9548,0c0.4175,1.1588,0.8351,2.3177,1.2596,3.4955c-14.3178,2.2113-27.7434,6.1371-40.6872,12.327
		c-20.3915,9.7515-40.2484,19.8502-54.0549,38.7965c-10.1319,13.9038-16.4769,29.1398-18.4954,46.2118
		c-0.2563,2.1683-0.8618,4.2953-1.3475,6.6443c-11.9689-4.561-16.5048-15.5926-25.0031-24.536
		c-3.553,4.9455-6.3137,9.5853-9.8437,13.5383c-7.6994,8.622-9.0161,18.4892-7.0158,29.3491
		c1.8831,10.2233,7.045,18.9409,12.2909,27.6363c2.3123,3.8328,1.7877,6.0878-2.1808,7.2154
		c-14.7164,4.1816-24.0252,14.571-30.4103,27.5951c-2.8403,5.7935-3.5096,12.6958,1.5449,18.3329
		c5.1223,5.7126,5.1755,6.8121,1.7139,13.4477c-5.65,10.8305-5.8365,22.5087-3.5676,34.0842
		c0.631,3.2188,3.8401,7.1187,6.8447,8.3846c3.7307,1.5719,5.7709-2.7862,7.7089-5.6842c0.7405-1.1073,1.5455-2.1721,2.3348-3.2461
		c2.486-3.3826,4.9786-6.7604,7.4687-10.14c0.5793,0.165,1.1587,0.3301,1.738,0.4952c0.1882,2.8428,0.7893,5.7288,0.4968,8.5211
		c-1.7355,16.5664-3.704,33.1083-5.545,49.6639c-2.8961,26.0443-5.8357,52.2768-0.9236,78.2007
		c4.1428,21.8641,10.7493,43.2589,16.16,64.8877c1.0207,4.08,1.5466,8.2838,2.3509,12.7056
		c-3.7216,0.4246-6.681,0.2758-9.2943,1.1553c-6.7284,2.2644-13.4601,4.6489-19.8809,7.6484
		c-3.8204,1.7848-5.356,5.5999-5.3426,10.0128c0.0328,10.8164-0.2466,21.6341-0.1897,32.45
		c0.0675,12.8224,0.1144,25.6528,0.6036,38.4633c0.7871,20.613,1.0468,41.306,3.2178,61.7863
		c1.5673,14.7856,4.5194,29.7188,13.8931,42.2537c4.5815,6.1266,9.3688,12.158,13.3165,18.684
		c4.1703,6.894,7.7824,14.1796,11.038,21.559c3.9551,8.9652,8.2064,17.2072,17.6632,21.9319
		c6.5635,3.2792,12.9121,3.0244,19.3726,1.1487c4.8929-1.4207,6.3412,0.6353,6.7698,4.8647c0.2347,2.3158,0.5299,4.64,1.016,6.9137
		c6.2267,29.1255,12.6766,58.2048,18.6896,87.3741c4.6106,22.3666,14.3314,42.5161,26.687,61.337
		c19.6647,29.9547,45.8278,53.8755,73.568,76.1057c14.9284,11.9633,30.1603,23.5578,45.4708,35.0311
		c13.8641,10.3895,28.5948,19.5546,44.8779,25.5571c9.1231,3.3632,18.923,4.9047,28.439,7.1787
		C917.354,1048.0142,920.1793,1048.2126,919.9648,1052z"/>
	<path d="M914.7074,1047.3817c-9.5161-2.274-19.3159-3.8156-28.439-7.1787c-16.283-6.0024-31.0137-15.1676-44.8779-25.5571
		c-15.3105-11.4733-30.5424-23.0679-45.4708-35.0311c-27.7402-22.2301-53.9033-46.151-73.568-76.1057
		c-12.3555-18.8209-22.0764-38.9705-26.687-61.337c-6.0129-29.1693-12.4628-58.2486-18.6896-87.3741
		c-0.4861-2.2737-0.7813-4.5979-1.016-6.9137c-0.4286-4.2294-1.8769-6.2853-6.7698-4.8647
		c-6.4604,1.8757-12.8091,2.1305-19.3726-1.1487c-9.4568-4.7247-13.7081-12.9667-17.6632-21.9319
		c-3.2556-7.3794-6.8677-14.665-11.038-21.559c-3.9477-6.526-8.7349-12.5574-13.3165-18.684
		c-9.3737-12.5349-12.3258-27.468-13.8931-42.2537c-2.171-20.4802-2.4307-41.1733-3.2178-61.7863
		c-0.4892-12.8104-0.5361-25.6409-0.6036-38.4633c-0.0569-10.816,0.2225-21.6336,0.1897-32.45
		c-0.0134-4.4129,1.5222-8.2281,5.3426-10.0128c6.4207-2.9995,13.1525-5.3839,19.8809-7.6484
		c2.6133-0.8795,5.5728-0.7307,9.2943-1.1553c-0.8043-4.4218-1.3302-8.6255-2.3509-12.7056
		c-5.4107-21.6288-12.0172-43.0236-16.16-64.8877c-4.912-25.9239-1.9724-52.1563,0.9236-78.2007
		c1.8409-16.5556,3.8094-33.0975,5.545-49.6639c0.2925-2.7924-0.3086-5.6784-0.4968-8.5211
		c-0.5793-0.165-1.1587-0.3301-1.738-0.4952c-2.4901,3.3796-4.9827,6.7574-7.4687,10.14c-0.7894,1.074-1.5944,2.1388-2.3348,3.2461
		c-1.938,2.898-3.9782,7.2561-7.7089,5.6842c-3.0046-1.2659-6.2137-5.1658-6.8447-8.3846
		c-2.269-11.5754-2.0825-23.2537,3.5676-34.0842c3.4616-6.6356,3.4084-7.7351-1.7139-13.4477
		c-5.0546-5.6371-4.3853-12.5394-1.5449-18.3329c6.3851-13.0241,15.6939-23.4135,30.4103-27.5951
		c3.9685-1.1276,4.4931-3.3826,2.1808-7.2154c-5.2458-8.6954-10.4078-17.413-12.2909-27.6363
		c-2.0003-10.8598-0.6836-20.727,7.0158-29.3491c3.53-3.953,6.2907-8.5928,9.8437-13.5383
		c8.4984,8.9434,13.0342,19.975,25.0031,24.536c0.4857-2.349,1.0911-4.476,1.3475-6.6443
		c2.0186-17.072,8.3635-32.308,18.4954-46.2118c13.8066-18.9463,33.6635-29.045,54.0549-38.7965
		c12.9438-6.1899,26.3694-10.1158,40.6872-12.327c0,0,36.7428-3.4955,55.744-3.4955c0.3138,6.4623-3.473,9.5766-9.0989,11.2992
		c-4.9245,1.5079-9.9347,2.847-14.6714,4.825c-4.5578,1.9033-8.8135,4.53-13.202,6.8388c0.2286,0.6123,0.4573,1.2246,0.6859,1.8369
		c1.989-0.2462,4.0458-0.2479,5.9564-0.7769c16.0999-4.4578,32.3925-7.2212,49.1913-7.0509
		c10.7916,0.1094,21.7767,0.5372,32.3457-1.1913c17.3365-2.8353,34.4219-7.2375,51.5469-11.2607L940.9662,28
		c-1.9011,5.8335-3.8022,11.667-5.8712,18.0152c8.9435-2.3984,17.0137-5.0785,25.2924-6.6825
		c21.7799-4.2197,43.6005-4.7883,65.219,1.2084c1.8536,0.5142,3.4353,2.0089,6.1901,3.6851
		c-8.009,4.1463-14.8369,7.681-21.6648,11.2157c0.2262,0.4873,0.4523,0.9746,0.6784,1.4619c2.2737,0,4.5701,0.2088,6.8175-0.0339
		c14.6043-1.5772,27.3821-7.763,39.383-15.8406c2.6111-1.7574,4.9647-4.1155,7.8143-5.2465
		c3.8218-1.5169,10.4529-8.3383,13.1195-7.7827c4.1111,1.1111,5.4393,4.3202,6.626,5.435
		c6.5409,6.1454,8.4067,14.5652,11.337,22.4234c1.4434,3.8706,2.2303,8.0388,2.8733,12.1414
		c0.7797,4.974,3.8405,7.6543,8.394,7.7152c13.8398,0.1851,26.9968,4.323,38.902,10.1094
		c9.5521,4.6427,15.9154,1.7679,23.2384-2.5199c11.5491-6.7624,24.0303-8.7062,37.0973-6.8782
		c3.6978,0.5173,7.504,1.7429,10.764,3.5429c4.4307,2.4465,3.9641,4.7561-0.1842,7.732
		c-6.9869,5.0122-13.7389,10.3539-20.5366,15.6253c-0.8723,0.6765-1.4281,1.7612-2.5394,3.1782
		c5.2463,2.9164,10.1205,5.666,15.0323,8.3465c6.5474,3.5729,12.9568,7.4714,19.7603,10.4707
		c3.293,1.4517,7.4274,1.9253,11.0468,1.5499c18.9308-1.9633,36.7495,1.8982,53.9542,9.4439
		c17.4894,7.6705,29.5374,21.2376,39.0743,37.1647c2.1556,3.5998,2.8229,8.4475,3.0223,12.7739
		c0.2644,5.7356-2.494,7.0221-7.6097,4.3141c-13.2852-7.0325-27.1307-11.9281-42.4701-10.7453
		c-2.6945,0.2078-5.3389,1.0657-8.3009,2.377c32.1591,11.6322,47.734,36.6625,56.3014,67.3703
		c3.3185,11.8939,3.0356,38.0991-0.4912,45.454c-2.1241-1.9801-4.2184-3.5913-5.895-5.5582
		c-5.3862-6.3181-10.4437-12.9259-16.017-19.0691c-1.6564-1.8258-4.5948-2.4887-6.9458-3.6844
		c-0.2568,0.3577-0.5135,0.7154-0.7703,1.0731c1.4221,4.342,3.0627,8.6263,4.2256,13.0367
		c3.5688,13.5361,3.4863,27.3917,3.0684,41.2276c-0.493,16.3182-1.3953,32.6245-1.8329,48.9437
		c-0.3032,11.2997,0.969,22.7505-0.4419,33.883c-1.6227,12.8043-4.9979,25.4492-8.4076,37.9464
		c-3.2377,11.8668-7.6516,23.4077-11.2592,35.1805c-2.1111,6.8893-1.1801,7.9398,5.9152,9.3156
		c8.984,1.7422,17.5646,4.1112,25.6385,9.0665c6.5442,4.0164,7.8391,8.9348,7.6555,15.7225
		c-0.6309,23.3166-0.6294,46.6535-1.4917,69.9596c-0.8003,21.6303-2.1261,43.2515-3.745,64.8373
		c-0.9952,13.2695-8.2238,24.486-13.6769,36.2192c-1.8879,4.0624-4.1426,8.0083-6.6693,11.7071
		c-3.4949,5.1157-4.7249,10.6832-5.6838,16.7452c-2.1987,13.9005-8.5696,25.8362-20.0239,34.4774
		c-8.6512,6.5266-17.7639,6.8491-26.9866,0.9594c-1.3772-0.8796-2.8165-1.662-5.0308-2.9607
		c-1.1694,2.9027-2.6442,5.3328-3.1224,7.9454c-3.8066,20.7962-7.0209,41.709-11.2301,62.4207
		c-3.2397,15.9416-6.39,32.0927-11.799,47.3649c-14.1503,39.9543-36.6647,75.144-64.6846,106.836
		c-7.2644,8.2163-14.0254,17.1646-22.4561,24.0037c-18.1804,14.748-37.0887,28.6321-56.1129,42.2936
		c-9.5696,6.8721-20.7306,10.3945-32.6293,11.291C989.3333,1050.1317,968.2963,1049.6676,914.7074,1047.3817z M1146.5459,860.2354
		c-0.4819-0.1751-0.9637-0.3503-1.4457-0.5254c0-1.9094-0.2461-3.856,0.0366-5.7225c5.1549-34.0533,8.1434-68.5201,19.6016-101.3671
		c4.4456-12.7439,8.2672-25.7405,16.5217-36.7433c1.6195-2.1586,3.5635-4.0737,5.3578-6.1011
		c0.2562,0.2002,0.5125,0.4003,0.7687,0.6005c-0.359,1.8561-0.718,3.7123-1.077,5.5685c0.8795,0.6528,1.7588,1.3056,2.6383,1.9584
		c0.7727-1.6812,1.53-3.3696,2.3243-5.0405c0.4283-0.9011,1.1012-1.7234,1.355-2.6646
		c3.1571-11.7053,12.5458-17.1209,22.3162-22.1015c8.8496-4.5112,17.3507-9.3578,21.8994-18.8622
		c0.2921-0.6102,1.1812-0.9346,2.0703-1.5996c0.4102,0.936,0.5992,1.5407,0.9198,2.0651c0.7952,1.3008,1.6505,2.5648,2.4817,3.8436
		c1.0222-1.1866,2.2222-2.2664,3.0182-3.5891c0.849-1.4108,1.3751-3.0299,1.941-4.5946
		c6.0449-16.7135,9.8452-33.9402,10.7343-51.6804c1.0841-21.6326,1.368-43.3066,2.5415-64.9333
		c2.1311-39.2781-1.5144-77.097-23.0635-111.6207c-8.775-14.0583-13.2032-30.0934-15.6337-46.6137
		c-3.337-22.682-3.8394-45.4549-3.0758-68.3019c0.969-28.9987-10.583-53.0957-29.1239-74.4648
		c-2.8696-3.3073-6.2936-4.6696-10.6984-3.6055c-4.5312,1.0946-9.0945,2.5196-13.6991,2.7661
		c-18.1068,0.9692-36.2401,2.2134-54.355,2.0916c-30.715-0.2066-60.8416,3.2438-90.3328,11.8179
		c-12.4594,3.6224-24.6412,8.3201-37.2357,11.3312c-26.4548,6.3248-52.9014,2.1857-78.8326-3.1142
		c-27.7107-5.6635-54.9873-13.4569-82.439-20.3778c-19.0845-4.8114-38.2112-9.4421-58.0573-9.2526
		c-3.681,0.0352-7.9581,0.6217-10.9246,2.5481c-24.1266,15.6666-38.6017,37.9284-42.6246,66.3895
		c-2.6797,18.9586-5.0156,38.0504-5.9171,57.1576c-1.6987,36.0021-10.823,69.9002-25.516,102.6019
		c-6.886,15.326-13.8437,30.7823-15.0707,47.8943c-1.4893,20.771-2.8896,41.5536-3.9069,62.3517
		c-0.9972,20.3893,0.6357,40.6409,4.8942,60.6299c0.418,1.9617,1.7481,5.2761,2.7535,5.3136
		c6.3029,0.2348,9.4883,5.0971,13.766,8.3176c8.5089,6.4061,17.2516,12.5322,25.436,19.3298
		c7.6016,6.3136,16.0984,11.8993,20.4286,21.4499c1.303,2.874,3.2379,5.4615,4.3378,7.2791
		c1.1906-1.6853,2.5123-3.5561,3.8339-5.4269c1.9539,1.5195,3.9464,2.9936,5.834,4.5915c0.4583,0.388,0.4338,1.3145,0.8663,1.7703
		c1.9399,2.0441,3.9546,4.0178,5.9603,5.9987c7.269,7.179,14.5511,14.3447,21.7998,21.544
		c0.3214,0.3191,0.3924,0.9106,0.5317,1.3894c3.7178,12.7791,7.5639,25.5231,11.0687,38.3604
		c1.2208,4.4714,1.5961,9.1737,2.3575,13.7705c-0.5411,0.1686-1.0822,0.3373-1.6234,0.5059
		c-4.4185-7.5122-9.0305-14.919-13.1975-22.5682c-3.6523-6.7045-6.332-13.9725-10.3224-20.4487
		c-3.4241-5.5571-7.1066-11.0903-14.0496-13.5901c-13.4642-4.848-26.6339-10.4297-38.2048-19.1643
		c-3.3027-2.493-6.2341-6.0604-11.4025-4.3077c-1.2321,0.4178-3.1882-0.7532-4.6137-1.5479
		c-5.6667-3.1587-10.2926-7.2557-12.5009-13.689c-0.8162-2.3778-2.3858-4.4971-3.6118-6.7343
		c-0.46,0.2296-0.9199,0.459-1.3799,0.6886c0.7932,4.2178,1.4348,8.4709,2.4053,12.6475
		c4.5596,19.6219,9.3198,39.1981,13.7336,58.8522c0.8746,3.8944,2.5247,5.0265,6.4023,5.0449
		c13.6616,0.065,27.3344,0.256,40.9768,0.9294c7.9604,0.3929,15.9157,1.5375,23.7755,2.9059
		c2.2273,0.3878,5.6602,2.5341,5.9018,4.2462c1.6711,11.8421,2.839,23.7678,3.7467,35.6988
		c0.3652,4.8007-2.1926,7.8119-7.4664,7.9651c-17.4575,0.5068-34.9148,1.0391-52.3656,1.7286
		c-2.0413,0.0806-4.0414,1.2019-6.0607,1.8408c1.1891,2.9181,1.9517,6.1458,3.7495,8.6221c0.8831,1.2162,3.6696,1.3345,5.6216,1.437
		c5.4884,0.2885,10.9947,0.5096,16.4869,0.4016c18.1613-0.3575,36.3206-0.8325,54.4779-1.3575
		c3.8906-0.1124,6.9785,0.4893,7.6807,5.0878c1.8604,12.1844,4.1746,24.3167,5.5127,36.5566
		c0.6776,6.1983-0.1566,12.6026-0.7033,18.8793c-0.3544,4.0681-2.9307,6.7051-7.0738,7.3083
		c-6.7435,0.9818-13.4929,2.3102-20.2737,2.5568c-9.9818,0.3629-19.9933-0.1362-29.9925-0.1735
		c-2.0551-0.0077-4.1117,0.4006-7.5048,0.758c2.0052,2.9673,3.1141,5.1347,4.6971,6.8693
		c16.8334,18.4454,33.1006,37.4664,50.7832,55.0635c25.2135,25.0916,53.181,47.0057,83.347,65.9272
		c9.0005,5.6456,18.5972,10.3331,29.5769,11.4453c29.21,2.9586,58.4636,4.494,87.8337,4.0386
		c4.7269-0.0734,6.8594-1.3119,6.3665-6.1512c-0.1507-1.4799,0.106-2.9965,0.0812-4.4948
		c-0.3302-19.9866-0.6405-39.9738-1.0403-59.959c-0.1398-6.9894,0.82-7.7895,7.6315-8.8172
		c17.1879-2.5933,34.2203-0.9651,51.3088,0.957c4.9177,0.5532,7.2454,2.9927,7.7715,7.4637
		c0.7391,6.2812,1.6093,12.5889,1.6987,18.8957c0.1821,12.8232-0.1564,25.6532-0.1884,38.4805
		c-0.0051,2.0688,0.4641,4.1389,0.8459,7.2996c3.2216-1.7344,5.9016-2.6847,7.9806-4.3744
		c16.7866-13.6438,34.2142-26.62,49.9845-41.3633c21.6058-20.1988,39.3508-43.8528,55.8732-68.3786
		c10.8088-16.0447,22.2167-31.895,28.4856-50.2986c4.5942-13.4872,7.3455-27.6602,10.1827-41.6763
		c7.0703-34.928,13.7294-69.9392,20.5212-104.9234c0.4745-2.4433,1.1777-5.0013,0.8719-7.3904
		c-0.2816-2.2019-1.7797-4.2482-2.7418-6.363c-2.0051,1.1563-4.49,1.902-5.9092,3.5597c-2.4712,2.8867-4.4207,6.2574-6.3398,9.5695
		c-2.3044,3.9771-4.693,7.4307-9.7129,8.6165c-1.8536,0.4379-3.5862,2.9114-4.6611,4.8515
		c-3.9998,7.2192-3.8885,7.2808-11.707,5.3409c-1.7451,4.8013-3.4302,9.6255-5.2579,14.3953
		c-1.1162,2.9131-3.0702,4.3752-6.5177,4.2776c-1.8809-0.0533-4.5477,0.8627-5.5601,2.2739
		c-2.3979,3.3434-4.7446,7.0436-5.8242,10.955c-3.7621,13.629-6.8632,27.4386-10.431,41.1234
		c-3.7347,14.3253-7.6309,28.6105-11.6804,42.8495C1149.6476,856.1182,1147.8282,858.1005,1146.5459,860.2354z M1205.8848,87.4547
		c-0.2629-0.5819-0.526-1.1638-0.7889-1.7458c-1.9799-0.1442-3.9912-0.5865-5.9343-0.3818
		c-9.042,0.9523-17.0435,4.7614-24.1221,10.1714c-8.9935,6.8734-17.5782,14.2821-26.3286,21.473
		c-9.2589,7.6089-19.6263,12.8864-33.0481,15.755c1.9227-3.0041,2.7971-5.1327,4.3093-6.6071
		c8.5834-8.3686,17.2938-16.6078,26.0198-24.8287c2.4254-2.2851,2.8057-4.562-0.5961-5.6607
		c-12.3412-3.9864-24.7617-7.7342-37.2023-11.4028c-4.6493-1.3711-7.2511,0.5822-7.7455,5.5312
		c-1.6843,16.8657-9.3408,31.5306-17.6169,45.8167c-10.4573,18.051-25.078,32.7286-39.75,47.3184
		c-19.486,19.3768-39.7073,38.1342-53.2793,62.5682c-0.8271,1.4891-2.5204,2.4971-3.8107,3.7289
		c0.0181-11.5128,3.9385-21.3119,9.2968-30.5698c8.1838-14.1398,19.4788-25.7024,31.0855-37.0012
		c15.6299-15.2152,31.8754-29.8747,42.8048-49.2219c12.5435-22.2044,18.8079-45.7535,16.512-71.3894
		c-0.7991-8.9219-3.3744-17.1114-8.3375-25.3694c-1.3809,1.8533-2.7268,3.1392-3.4431,4.7119
		c-2.9875,6.5596-8.4182,10.5606-14.2213,14.3097c-11.2162,7.2463-23.5502,11.9076-36.4689,14.5871
		c-13.4506,2.7898-27.1465,3.2408-40.6818-0.0398c-1.7599-0.4265-4.4686-1.715-4.6179-2.8767
		c-0.2176-1.6926,1.0152-4.2764,2.4659-5.3423c3.8517-2.8299,8.1284-5.0899,12.2824-7.4964c2.1269-1.2321,4.3534-2.2922,6.5349-3.43
		c-0.1779-0.502-0.3557-1.0041-0.5335-1.5061c-3.9462,0.2448-7.9632,0.0995-11.8264,0.8009
		c-18.3423,3.3301-36.6472,6.8676-54.9564,10.3781c-11.5181,2.2084-22.5923,5.5772-32.7774,11.6806
		c-3.3743,2.0221-7.3107,3.354-11.1645,4.2584c-3.8063,0.8932-7.8331,0.8471-11.7631,1.2131
		c-0.1765-0.6225-0.3529-1.2451-0.5293-1.8676c2.9228-2.0909,5.7343-4.3629,8.7886-6.2399
		c10.3591-6.3658,20.8278-12.5532,31.1863-18.9199c1.31-0.8052,2.2136-2.2714,3.3055-3.4314
		c-0.2803-0.442-0.5607-0.884-0.8409-1.326c-3.2783,0.9592-6.5942,1.8064-9.8283,2.8966
		c-15.4351,5.203-31.2588,8.0636-47.5654,8.3588c-9.83,0.1779-19.6657,0.4542-29.4789,1.0269
		c-9.4618,0.5522-18.9589,1.1122-28.3316,2.4383c-14.9549,2.1158-28.0252,9.2804-41.1204,16.3329
		c-3.4283,1.8463-7.4724,2.5494-11.7867,3.9581c-0.211-6.6723,0.4991-11.5938,4.3735-15.3426
		c5.49-5.312,11.1971-10.3997,16.8177-15.5763c1.6146-1.4869,3.2512-2.9498,4.8777-4.4236c-0.218-0.4334-0.436-0.8667-0.6541-1.3001
		c-2.2043,0.3279-4.454,0.4749-6.6046,1.0158c-8.0704,2.0299-16.1727,3.9715-24.1464,6.3391
		c-24.3092,7.2182-46.4341,18.3725-64.3016,36.8321c-14.0203,14.4849-24.5224,31.0494-29.0829,50.9406
		c-0.7698,3.3577-2.7379,5.2885-5.9097,4.6756c-3.4815-0.6727-7.1943-1.7272-10.0352-3.7164
		c-3.1898-2.2336-5.4216-5.7962-8.2648-8.5821c-1.1967-1.1726-2.8918-1.8366-4.3604-2.7318
		c-0.707,1.4229-1.9636,2.8232-2.0231,4.2725c-0.2241,5.4692-0.6684,11.0398,0.085,16.4162
		c1.649,11.7682,4.7299,23.1534,11.3668,33.3185c1.7214,2.6367,3.4181,6.1007-1.1826,7.8058
		c-13.756,5.0983-23.2903,15.149-31.6234,26.6077c-0.9352,1.2859-0.9779,3.2208-1.4344,4.8548
		c1.7194,0.1239,3.576,0.7258,5.1318,0.2793c4.1449-1.1897,8.1008-3.045,12.2538-4.1962c1.8977-0.526,4.0822-0.0179,6.1366,0.0212
		c-0.5298,2.1546-0.4803,4.732-1.6904,6.3903c-5.102,6.9921-11.1718,13.3378-15.7574,20.6305
		c-4.816,7.6592-8.4592,16.0747-12.3068,24.3037c-0.5854,1.2521,0.4955,3.2831,0.8057,4.9539
		c1.3531-0.7613,2.8774-1.3282,4.0169-2.332c1.4866-1.3095,2.4203-3.3476,4.0325-4.3927c3.4337-2.226,6.9785-4.5147,10.8032-5.8356
		c3.5845-1.2379,6.0649,0.3008,5.9133,4.8074c-0.0995,2.9594,0.6021,5.9364,0.766,8.9154
		c0.6844,12.4364,2.3325,24.9305,1.6863,37.302c-0.8403,16.0904-3.5422,32.0822-5.4081,48.1206
		c-2.4797,21.3155,0.8303,42.342,4.9944,62.9906c4.9978,24.7824,12.0869,49.1431,18.2709,73.6863
		c4.3073,17.0949,8.605,34.1924,12.9372,51.281c0.4885,1.9268,1.1733,3.8037,1.7671,5.7038
		c0.4787-0.0799,0.9574-0.1599,1.4361-0.2397c0.1182-2.5702,0.369-5.1422,0.3333-7.7102
		c-0.2505-18.0797,0.879-36.1152,5.9308-53.4803c6.2258-21.4007,13.8433-42.3928,20.3716-63.7107
		c3.9423-12.8731,7.0382-26.0097,10.3135-39.0782c0.5504-2.1964,0.0776-4.6491,0.0776-8.1587
		c-4.0977,5.4503-7.3395,9.7625-10.5815,14.0746c-0.6631-0.3848-1.3264-0.7697-1.9895-1.1545
		c3.2936-8.1332,6.5872-16.2665,9.8809-24.3997c-0.4009-0.1729-0.8019-0.3458-1.2029-0.5187
		c-1.8978,0.9818-3.7955,1.9636-5.6934,2.9454c-0.3483-0.3112-0.6966-0.6225-1.0449-0.9338
		c6.1848-11.6694,11.4561-23.6545,13.5721-37.017c-7.2166,7.4184-13.0228,16.101-23.3345,21.2223
		c0.5442-1.5345,0.5992-2.0681,0.8793-2.4252c12.2573-15.6269,18.3826-34.1932,25.3297-52.3975
		c6.1741-16.1789,11.9816-32.6081,24.418-45.4622c0.8427-0.871,1.2408-2.1722,1.9111-3.3924c-15.2972,0-30.1844-0.647-44.989,0.1824
		c-14.7429,0.826-29.4027,3.1339-44.099,4.792c1.0283-1.8088,2.397-2.881,3.9496-3.4593
		c15.3819-5.7287,31.044-9.9907,47.6783-9.9167c13.6535,0.0607,27.3101-0.2908,40.9629-0.5802
		c3.3723-0.0715,6.526-0.8921,7.335-5.2803c-1.2004-0.4009-2.0992-0.7718-3.0328-1.0022
		c-12.1014-2.9869-24.4111-5.3164-36.26-9.0923c-13.8304-4.4075-27.131-10.3266-37.7987-20.7185
		c-1.2562-1.2238-2.0487-2.9236-3.0562-4.4028c0.3364-0.4764,0.6727-0.9529,1.009-1.4293
		c27.666,13.5396,56.0348,24.6976,87.1846,26.7856c-11.3367-6.4265-25.9109-7.3112-33.1516-20.579
		c6.8777,1.8136,13.4465,4.3354,19.962,6.9881c4.7644,1.9398,9.2795,4.9658,14.2144,5.9328
		c24.3574,4.7733,48.8773,8.7201,73.2264,13.5327c29.5641,5.8434,59.1339,11.7513,88.4738,18.6051
		c20.3195,4.7467,40.6147,9.0447,61.4546,10.5123c2.627,0.185,5.6802,0.1241,7.7373,1.4326
		c4.8463,3.0827,8.6912,1.4735,12.9288-1.0627c13.9333-8.339,28.7294-14.9112,44.3427-19.2451
		c30.7886-8.5462,62.1356-11.3448,94.0602-8.5935c26.1564,2.2542,52,0.6867,76.5609-9.9289
		c8.8687-3.8331,17.6284-7.9193,26.5167-11.7049c2.9502-1.2565,6.1469-1.9343,9.2308-2.8767
		c0.3136,0.7391,0.6272,1.4782,0.9408,2.2172c-12.2175,11.8602-25.9558,21.4291-43.0872,26.7685
		c1.1234,1.3442,1.7804,2.5142,2.7628,3.2494c21.9624,16.4357,31.3561,39.7216,36.5593,65.6018
		c4.26,21.1891,1.7421,42.551,2.7513,63.8128c0.0522,1.1013-0.5677,2.2344-1.038,3.9471c-1.7914-2.0673-2.9865-3.4464-4.1815-4.8255
		c-0.3997,0.2154-0.7994,0.4307-1.1992,0.6461c3.868,10.6658,7.736,21.3316,11.6039,31.9974
		c-0.8224,0.5557-1.6448,1.1115-2.4672,1.6672c-2.0526-3.076-4.1051-6.152-6.1576-9.228c-0.5496,0.482-1.0992,0.964-1.6489,1.446
		c1.723,7.6811,5.8892,14.149,10.9321,20.0985c10.6742,12.5926,18.2448,26.9183,21.0537,43.0746
		c2.816,16.1963,3.947,32.6852,5.8268,49.0448c0.2734,2.3804,0.6046,4.7542,0.9092,7.131c0.5638,0.0388,1.1278,0.0776,1.6917,0.1165
		c1.4689-8.4419,2.7548-16.9205,4.4457-25.3177c3.2798-16.2883,6.015-32.7461,10.4668-48.7181
		c3.0573-10.9685,9.3494-21.0067,12.8213-31.8987c2.2589-7.0868,3.9343-15.315,2.5984-22.4162
		c-4.3322-23.0282-6.4685-46.0506-6.0242-69.4849c0.2771-14.6137-0.8042-29.292-2.0315-43.8777
		c-0.5507-6.5441-2.927-12.9386-4.5206-19.3897c-1.3489-5.4611-0.2485-6.7944,5.3501-7.2873
		c6.7271-0.5922,12.4777,1.0126,17.1909,6.0896c2.3734,2.5567,5.0399,4.8557,7.6934,7.1321
		c1.2725,1.0918,2.8223,1.8604,5.3345,3.4742c-0.1584-2.7242-0.0077-4.1755-0.3541-5.4962
		c-8.2461-31.4368-24.2646-57.1558-53.7347-73.0021c-5.2733-2.8355-5.6555-6.0921-1.0236-10.0688
		c5.5142-4.7344,11.7014-8.0712,19.2548-8.6267c10.8632-0.7989,21.5273-0.2616,32.8477,4.1298
		c-1.2156-1.8988-1.6892-2.7505-2.2712-3.5205c-0.8026-1.0617-1.6145-2.1331-2.5472-3.0771
		c-11.344-11.4814-25.4272-18.1568-40.7339-22.1633c-18.4117-4.8193-37.1724-7.7093-56.2714-8.1259
		c-1.1312-0.0247-3.1808-1.9221-3.1608-2.9148c0.0751-3.7062-1.9309-4.6771-4.985-5.6635
		c-6.4775-2.0922-12.9268-4.3872-19.1398-7.1553c-8.3645-3.7268-8.9202-3.7269-14.1099,3.9409
		c-8.902,13.1526-19.1891,24.9159-34.3881,30.9396c-5.6213,2.2278-11.728,3.2308-17.6134,4.7925
		c-0.1512-0.5084-0.3025-1.0169-0.4539-1.5253c1.3674-0.8791,2.7023-1.8145,4.1077-2.6279
		c8.603-4.979,16.0507-11.2102,22.093-19.201c6.2281-8.2364,12.5674-16.4155,19.3109-24.2288
		c8.5823-9.9439,17.0135-20.2665,30.5858-23.9308C1204.1902,88.501,1205.015,87.8947,1205.8848,87.4547z M1266.3041,672.9481
		c3.0773-4.3563,5.8542-8.5899,8.9348-12.5897c8.0854-10.4982,9.6858-21.6226,3.8129-33.6871
		c-4.8439-9.9506-4.189-20.0577-0.3086-30.0766c2.1638-5.587,4.5513-11.1074,7.1803-16.4907
		c9.7371-19.9387,18.556-40.2191,23.7953-61.8776c1.0048-4.1533,1.5386-8.1958,6.0098-10.7445
		c3.0333-1.7291,2.3394-4.8391-0.8395-5.3227c-7.8824-1.1994-15.8193-2.037-23.7234-3.1003
		c-4.3562-0.5861-6.3815,1.2905-7.1074,5.5667c-2.3964,14.1147-5.4272,28.1327-7.4556,42.2965
		c-4.0811,28.4984-12.1957,56.2573-15.032,84.9883c-2.1266,21.5432-4.7979,43.0383-7.5793,64.509
		c-1.3682,10.5615-3.6938,20.9956-5.2792,31.5336c-0.8512,5.6571,0.9357,7.9472,6.327,9.6009
		c8.8,2.6992,16.1566,0.1159,20.189-8.2002c6.3143-13.022,11.816-26.4353,17.9816-39.5325
		c10.377-22.044,21.0095-43.9507,21.0518-69.148c0.0098-5.8164,0.5463-11.6335,0.8894-17.4474
		c1.7208-29.1659,3.4579-58.3307,5.1893-87.4959c-0.5422-0.0911-1.0844-0.1821-1.6265-0.2732
		c-0.7286,1.2305-1.6837,2.381-2.1506,3.7038c-4.7372,13.4203-9.0123,26.8127-5.0699,41.4292
		c1.3195,4.8921,1.1178,10.2405,1.2316,15.3887c0.0457,2.0641-0.658,4.2789-1.5452,6.1803
		c-0.5505,1.1796-2.1082,2.6386-3.1729,2.6068c-0.9622-0.0287-1.847-1.9325-2.8046-2.9738
		c-1.9574-2.1285-3.9407-4.2332-5.9133-6.3477c-0.2045,3.3071-0.457,6.6125-0.5679,9.9227
		c-0.0195,0.5845,0.6547,1.1595,0.8357,1.7886c1.5492,5.383,3.7847,10.6908,4.4406,16.1852
		c1.7955,15.0399-0.3955,29.7321-7.1971,43.2927c-4.8607,9.6907-11.2972,18.4832-19.9517,25.3298
		C1274.0265,674.1955,1270.928,675.6332,1266.3041,672.9481z M612.9844,584.4969c-0.9038,0.0783-2.3636,0.2675-3.8284,0.321
		c-7.4969,0.2744-8.0458,0.2889-7.6748,7.9052c0.7607,15.6132,1.7004,31.2474,3.4377,46.7754
		c1.9991,17.868,8.0755,34.294,20.1793,48.0722c8.3983,9.5601,15.5815,19.8588,20.3809,31.7996
		c1.5118,3.7614,4.3762,7.0732,7.0168,10.2638c3.4535,4.1729,7.9758,4.9455,13.1208,3.2878c3.5486-1.1433,4.5604-3.16,3.8503-6.7941
		c-2.868-14.6782-6.0054-29.3265-8.175-44.1133c-3.9865-27.1697-7.6577-54.3939-10.9121-81.6608
		c-4.0169-33.6552-10.2655-66.7568-21.8535-98.7158c-1.0083-2.7807-2.4609-4.2238-5.4933-3.6971
		c-7.0475,1.2242-14.0984,2.4277-21.1463,3.6497c-2.7864,0.4831-4.2947,2.1488-3.4997,4.9259
		c2.9205,10.2016,4.8035,20.9379,9.3549,30.3743c5.6023,11.6152,13.6318,22.0419,20.329,33.153
		c4.5453,7.5409,8.9673,15.1999,12.7875,23.1229c4.7877,9.9296,5.8028,20.3958,2.4662,31.1245
		c-1.3835,4.4487-2.474,8.9885-3.6982,13.4867c-1.4034,5.1572-1.3891,10.2055,1.1661,15.0551
		c2.4022,4.5591,4.9097,9.0665,7.1782,13.6911c1.4794,3.0157,3.5169,6.1237,0.7533,10.2231
		c-1.6974-1.0993-3.3273-1.8753-4.6166-3.0312c-26.1574-23.449-34.9205-52.1841-26.9477-85.7045
		c0.178-0.7485,0.6954-1.4855,1.2279-2.0698c4.9064-5.3827,4.4412-8.3786-3.0416-12.804
		C614.5319,577.0536,613.7988,580.5797,612.9844,584.4969z M751.5283,885.0695c0.0253,0.441,0.0505,0.8821,0.0759,1.3231
		c11.4119-0.9323,22.8329-1.7697,34.2307-2.8517c3.6722-0.3486,6.308-2.1705,5.8026-6.5403
		c-1.6633-14.3818-3.3074-28.7661-4.9532-43.1499c-0.351-3.0672-1.9993-4.3026-5.0958-3.9667
		c-3.9677,0.4303-7.9522,0.7665-11.9384,0.9538c-18.7865,0.8826-37.576,1.7038-56.3648,2.5382
		c-3.3015,0.1467-6.0636,0.5221-4.7151,5.15c3.2574,11.1788,6.1784,22.4572,9.5547,33.5986
		c1.0453,3.4493,2.7736,6.8329,4.8613,9.7686c1.1243,1.5811,3.6356,2.9479,5.583,3.0356
		C736.2088,885.2728,743.8731,885.0695,751.5283,885.0695z M999.6261,1038.0952c14.7308-0.7926,28.8772-0.9493,42.8713-2.49
		c12.0969-1.3318,12.0195-2.0269,11.9606-14.2209c-0.0823-16.9968-0.1748-33.9935-0.2332-50.9905
		c-0.0101-2.9477,0.2181-5.5339-4.1847-5.6259c-14.151-0.2958-28.2924-1.0217-42.442-1.4266
		c-7.4467-0.2131-7.9448,0.3455-7.9581,7.8016C999.601,992.9184,999.6261,1014.694,999.6261,1038.0952z M692.0028,765.269
		c2.6,12.4393,4.9387,23.9652,7.5414,35.4312c0.2047,0.902,2.2473,1.976,3.4366,1.9772
		c18.1317,0.0173,36.2634-0.1697,54.3953-0.2123c4.3352-0.0102,5.326-2.0021,4.7665-6.0209
		c-1.123-8.0682-2.1188-16.1727-2.6579-24.296c-0.2828-4.262-2.3024-5.3049-6.0215-5.412
		c-14.2901-0.4118-28.5744-1.0255-42.8645-1.4385C704.6594,765.1258,698.7109,765.269,692.0028,765.269z M600.6814,559.1044
		c5.4736-4.5078,5.2343-9.8105,0-14.6805C600.6814,549.3179,600.6814,553.674,600.6814,559.1044z"/>
	<path class="st0" d="M1069.9744,28c0.5208,4.083-1.3276,6.2658-5.1494,7.7827c-2.8496,1.131-5.2032,3.4891-7.8143,5.2465
		c-12.0009,8.0776-24.7787,14.2634-39.383,15.8406c-2.2474,0.2427-4.5438,0.0339-6.8175,0.0339
		c-0.2261-0.4873-0.4522-0.9746-0.6784-1.4619c6.8279-3.5347,13.6558-7.0694,21.6648-11.2157
		c-2.7548-1.6762-4.3364-3.1709-6.1901-3.6851c-21.6185-5.9966-43.4391-5.4281-65.219-1.2084
		c-8.2787,1.6039-16.3489,4.2841-25.2924,6.6825c2.0689-6.3482,3.97-12.1817,5.8712-18.0152C983.9689,28,1026.9717,28,1069.9744,28z
		"/>
	<path class="st0" d="M921.7124,32.5202c-17.1251,4.0232-34.2104,8.4254-51.5469,11.2607
		c-10.569,1.7285-21.5541,1.3007-32.3457,1.1913c-16.7988-0.1703-33.0914,2.593-49.1913,7.0509
		c-1.9106,0.529-3.9674,0.5308-5.9564,0.7769c-0.2286-0.6123-0.4573-1.2246-0.6859-1.8369
		c4.3885-2.3088,8.6442-4.9355,13.202-6.8388c4.7368-1.978,9.7469-3.3171,14.6714-4.825c5.6259-1.7226,9.4127-4.8369,9.0989-11.2992
		C853.9607,28,922.7595,32.2741,921.7124,32.5202z"/>
	<path class="st0" d="M1146.5459,860.2354c1.2823-2.1349,3.1017-4.1172,3.7594-6.4297c4.0496-14.239,7.9457-28.5242,11.6804-42.8495
		c3.5679-13.6848,6.6689-27.4943,10.431-41.1234c1.0796-3.9113,3.4263-7.6115,5.8242-10.955
		c1.0123-1.4112,3.6792-2.3271,5.5601-2.2739c3.4475,0.0976,5.4015-1.3645,6.5177-4.2776c1.8278-4.7697,3.5128-9.594,5.254-14.3969
		c7.8224,1.9415,7.7112,1.8799,11.7109-5.3393c1.075-1.9401,2.8075-4.4136,4.6611-4.8515c5.0199-1.1858,7.4084-4.6393,9.7129-8.6165
		c1.9192-3.3121,3.8687-6.6829,6.3398-9.5695c1.4192-1.6577,3.9041-2.4034,5.9092-3.5597c0.9622,2.1148,2.4602,4.1611,2.7418,6.363
		c0.3058,2.3892-0.3975,4.9471-0.8719,7.3904c-6.7919,34.9842-13.4509,69.9954-20.5212,104.9234
		c-2.8373,14.0161-5.5885,28.1891-10.1827,41.6763c-6.2689,18.4036-17.6768,34.254-28.4856,50.2986
		c-16.5223,24.5258-34.2673,48.1798-55.8732,68.3786c-15.7703,14.7433-33.1979,27.7195-49.9845,41.3633
		c-2.079,1.6897-4.759,2.64-7.9806,4.3744c-0.3818-3.1606-0.8511-5.2307-0.8459-7.2996c0.032-12.8273,0.3705-25.6573,0.1884-38.4805
		c-0.0895-6.3068-0.9596-12.6145-1.6987-18.8957c-0.5261-4.4709-2.8538-6.9105-7.7715-7.4637
		c-17.0885-1.9221-34.1209-3.5503-51.3088-0.957c-6.8115,1.0277-7.7713,1.8278-7.6315,8.8172
		c0.3998,19.9853,0.7101,39.9724,1.0403,59.959c0.0248,1.4983-0.2319,3.0149-0.0812,4.4948
		c0.4929,4.8394-1.6395,6.0779-6.3665,6.1512c-29.3701,0.4554-58.6237-1.08-87.8337-4.0386
		c-10.9797-1.1122-20.5764-5.7997-29.5769-11.4453c-30.1661-18.9215-58.1335-40.8356-83.347-65.9272
		c-17.6826-17.5971-33.9498-36.6182-50.7832-55.0635c-1.583-1.7346-2.6918-3.902-4.6971-6.8693
		c3.3931-0.3574,5.4497-0.7657,7.5048-0.758c9.9992,0.0374,20.0107,0.5364,29.9925,0.1735
		c6.7808-0.2465,13.5302-1.575,20.2737-2.5568c4.1431-0.6032,6.7194-3.2403,7.0738-7.3083
		c0.5468-6.2767,1.3809-12.681,0.7033-18.8793c-1.3381-12.2399-3.6523-24.3721-5.5127-36.5566
		c-0.7021-4.5985-3.79-5.2002-7.6807-5.0878c-18.1573,0.525-36.3166,1-54.4779,1.3575c-5.4922,0.1081-10.9985-0.1131-16.4869-0.4016
		c-1.952-0.1025-4.7385-0.2208-5.6216-1.437c-1.7978-2.4763-2.5603-5.704-3.7495-8.6221c2.0192-0.6389,4.0194-1.7601,6.0607-1.8408
		c17.4508-0.6895,34.9081-1.2217,52.3656-1.7286c5.2738-0.1532,7.8315-3.1644,7.4664-7.9651
		c-0.9077-11.931-2.0756-23.8567-3.7467-35.6988c-0.2416-1.7121-3.6745-3.8583-5.9018-4.2462
		c-7.8598-1.3685-15.8151-2.513-23.7755-2.9059c-13.6424-0.6734-27.3152-0.8644-40.9768-0.9294
		c-3.8776-0.0184-5.5277-1.1505-6.4023-5.0449c-4.4138-19.6541-9.174-39.2303-13.7336-58.8522
		c-0.9705-4.1766-1.6121-8.4297-2.4053-12.6475c0.46-0.2296,0.9199-0.459,1.3799-0.6886c1.226,2.2372,2.7957,4.3565,3.6118,6.7343
		c2.2083,6.4333,6.8342,10.5303,12.5009,13.689c1.4255,0.7947,3.3817,1.9658,4.6137,1.5479
		c5.1684-1.7527,8.0997,1.8147,11.4025,4.3077c11.5709,8.7346,24.7405,14.3163,38.2048,19.1643
		c6.9429,2.4998,10.6255,8.033,14.0496,13.5901c3.9905,6.4762,6.6702,13.7442,10.3224,20.4487
		c4.167,7.6492,8.779,15.056,13.1975,22.5682c0.5411-0.1686,1.0823-0.3373,1.6234-0.5059
		c-0.7614-4.5968-1.1367-9.2991-2.3575-13.7705c-3.5048-12.8373-7.3509-25.5814-11.0687-38.3604
		c-0.1393-0.4788-0.2103-1.0703-0.5317-1.3894c-7.2487-7.1993-14.5308-14.3651-21.7998-21.544
		c-2.0057-1.9808-4.0204-3.9545-5.9603-5.9987c-0.4325-0.4558-0.408-1.3823-0.8663-1.7703c-1.8876-1.5979-3.8801-3.072-5.834-4.5915
		c-1.3216,1.8708-2.6432,3.7416-3.8339,5.4269c-1.1-1.8176-3.0348-4.4051-4.3378-7.2791
		c-4.3301-9.5506-12.827-15.1363-20.4286-21.4499c-8.1844-6.7976-16.9271-12.9237-25.436-19.3298
		c-4.2776-3.2205-7.4631-8.0828-13.766-8.3176c-1.0054-0.0375-2.3356-3.3519-2.7535-5.3136
		c-4.2585-19.989-5.8914-40.2407-4.8942-60.6299c1.0172-20.7982,2.4175-41.5807,3.9069-62.3517
		c1.227-17.1121,8.1847-32.5684,15.0707-47.8943c14.693-32.7018,23.8173-66.5999,25.516-102.6019
		c0.9015-19.1071,3.2374-38.1989,5.9171-57.1576c4.0229-28.4611,18.498-50.7229,42.6246-66.3895
		c2.9666-1.9264,7.2437-2.5129,10.9246-2.5481c19.8461-0.1895,38.9728,4.4413,58.0573,9.2526
		c27.4517,6.9209,54.7283,14.7143,82.439,20.3778c25.9313,5.2998,52.3779,9.439,78.8326,3.1142
		c12.5945-3.0111,24.7764-7.7088,37.2357-11.3312c29.4912-8.5742,59.6178-12.0246,90.3328-11.8179
		c18.1149,0.1219,36.2482-1.1224,54.355-2.0916c4.6046-0.2465,9.1678-1.6714,13.6991-2.7661
		c4.4048-1.0641,7.8287,0.2982,10.6984,3.6055c18.5409,21.3691,30.0929,45.4662,29.1239,74.4648
		c-0.7635,22.847-0.2612,45.6199,3.0758,68.3019c2.4304,16.5203,6.8586,32.5554,15.6337,46.6137
		c21.5491,34.5237,25.1946,72.3426,23.0635,111.6207c-1.1735,21.6266-1.4574,43.3007-2.5415,64.9333
		c-0.889,17.7402-4.6893,34.9669-10.7343,51.6804c-0.5659,1.5647-1.092,3.1838-1.941,4.5946
		c-0.796,1.3227-1.996,2.4025-3.0182,3.5891c-0.8312-1.2788-1.6865-2.5428-2.4817-3.8436c-0.3206-0.5244-0.5096-1.129-0.9198-2.0651
		c-0.8892,0.665-1.7782,0.9894-2.0703,1.5996c-4.5487,9.5044-13.0498,14.3511-21.8994,18.8622
		c-9.7704,4.9806-19.1591,10.3962-22.3162,22.1015c-0.2538,0.9411-0.9266,1.7634-1.355,2.6646
		c-0.7943,1.6709-1.5516,3.3593-2.3243,5.0405c-0.8795-0.6528-1.7588-1.3056-2.6383-1.9584c0.359-1.8561,0.718-3.7123,1.077-5.5685
		c-0.2562-0.2002-0.5125-0.4003-0.7687-0.6005c-1.7943,2.0274-3.7383,3.9425-5.3578,6.1011
		c-8.2545,11.0028-12.0762,23.9995-16.5217,36.7433c-11.4581,32.847-14.4467,67.3138-19.6016,101.3671
		c-0.2827,1.8666-0.0366,3.8132-0.0366,5.7225C1145.5822,859.8851,1146.064,860.0603,1146.5459,860.2354z M1222.8949,490.312
		c-0.7389-2.2142-0.8025-2.9044-1.1536-3.3841c-10.9485-14.9566-23.9327-27.8997-40.2128-36.8159
		c-5.8307-3.1934-7.7549-6.7607-7.5917-12.8392c0.2324-8.6578,0.2606-17.3445-0.233-25.9839
		c-0.1467-2.5667-2.196-7.0744-3.619-7.1736c-7.2275-0.504-14.5677-0.1813-21.8042,0.5175
		c-4.4816,0.4328-6.1935,3.5326-5.7198,8.2678c0.7119,7.118,0.8896,14.2943,1.1515,21.451
		c0.1705,4.6599-1.5262,7.6465-6.9088,7.5825c-2.6205-0.0312-5.3284,0.5329-7.8649,1.2769
		c-19.3229,5.6678-38.6906,11.2013-57.8921,17.2589c-19.6488,6.1988-39.4183,11.1377-60.261,9.9929
		c-1.3091-0.0719-3.5494,0.5652-3.8109,1.3728c-0.4189,1.2939,0.0984,3.2272,0.8739,4.4881
		c1.0219,1.6617,2.5667,3.0641,4.0825,4.3465c2.9239,2.4735,6.0012,4.7648,8.9849,7.1689c2.7037,2.1785,2.9987,4.4551,0.5591,7.1895
		c-2.4341,2.7283-4.8236,5.5566-6.8065,8.6172c-11.7433,18.126-16.3547,38.0539-14.7571,59.5197
		c0.2028,2.7252,0.0276,5.4786,0.0276,8.4895c-1.8946-0.1205-3.0307-0.2101-4.1686-0.2625
		c-10.7799-0.496-21.5618-1.3974-32.3395-1.3522c-9.3531,0.0393-17.3615,3.4863-23.4584,11.2703
		c-3.7587,4.7989-5.0615,9.9409-5.3881,15.71c-0.1896,3.351-0.4457,6.9692-4.8262,7.6677
		c-15.929,2.5399-31.8347,5.2764-47.8246,7.361c-7.1682,0.9344-7.527,0.4205-7.5815,7.8375
		c-0.0894,12.1585,0.0071,24.3199,0.2032,36.4773c0.0237,1.4659,0.7737,3.7762,1.8254,4.2361
		c9.7356,4.2578,19.2948,8.8103,30.6307,7.1807c13.806-1.9847,26.1267-7.5477,38.3622-13.7169
		c15.1373-7.6321,30.4128-14.3862,48.2515-10.5041c5.3323,1.1604,8.4487,3.262,9.5446,8.4822
		c3.0317,14.441,7.8676,28.2093,15.4067,40.9554c1.5634,2.6431,0.7514,4.3922-1.9424,5.5073
		c-2.9254,1.2111-5.876,2.3656-8.7697,3.6484c-10.1882,4.5162-17.9813,11.392-21.4608,22.3295
		c-1.109,3.4861-1.3963,7.0278,2.213,9.4097c9.408,6.2086,19.5139,6.8253,29.5128,2.1955
		c9.5429-4.4188,15.0411-11.9991,15.8246-23.0113c0.9863-13.8654-4.5341-25.6868-10.4501-37.508
		c-0.757-1.5128-1.4429-3.0613-2.4957-5.3048c2.0175,0.2653,2.9969,0.296,3.9248,0.5309
		c11.9392,3.0227,23.791,2.2185,35.6158-0.6982c7.5605-1.8649,8.8978-2.6072,9.265-10.157
		c0.6223-12.7924,0.4774-25.6244,0.5425-38.4403c0.0166-3.2877-2.1643-4.6624-5.2253-4.8251
		c-4.1603-0.2211-8.3596-0.1249-12.4766-0.6656c-10.0515-1.3201-20.1758-2.4202-30.0613-4.5718
		c-8.8141-1.9185-10.5511-4.8275-11.1321-13.5512c-0.6527-9.8008-1.523-19.5895-2.0185-29.3976
		c-0.671-13.2815-2.8535-26.9374,3.1698-39.4335c5.6931-11.8113,12.5969-23.0524,19.3045-34.3445
		c0.8287-1.3952,3.671-1.9467,5.6742-2.2335c10.9999-1.5749,22.441-1.5633,32.9554-4.6971
		c17.5017-5.2164,34.4233-12.384,51.5734-18.7726c6.6366-2.4722,13.23-5.0607,20.7095-7.9285
		c0.405,4.3708,0.6525,7.9511,1.0844,11.5092c0.8054,6.6339,3.1196,8.8082,9.689,8.8344c4.3269,0.0173,8.662-0.5605,12.9812-0.4389
		c4.6028,0.1296,6.9786-2.005,7.1924-6.3526c0.2335-4.75,2.984-4.9997,6.4878-4.0433c1.9158,0.5229,3.8032,1.2625,5.5851,2.1437
		c9.6957,4.7949,19.3357,9.7027,29.0406,14.4784C1217.0776,488.2855,1219.4478,488.9909,1222.8949,490.312z M857.2658,838.2585
		c-0.4097,0.4899-0.8194,0.9797-1.2291,1.4696c1.5984,2.218,2.8717,4.801,4.8647,6.5759c3.8409,3.4207,7.9045,6.6646,12.1982,9.4921
		c25.8772,17.04,53.4185,27.4954,85.2981,22.8558c9.2903-1.3521,19.032-1.0732,28.4061-0.0575
		c16.8784,1.829,33.362,1.6095,48.9639-5.7345c14.2778-6.7207,28.4249-13.7553,42.3108-21.243
		c2.9288-1.5793,5.5277-5.4739,6.3275-8.7745c0.6775-2.7947,1.3534-3.9265,3.9186-4.5873
		c4.3439-1.1191,8.7926-2.1122,12.8595-3.9186c2.3717-1.0536,4.0872-3.5845,6.0979-5.4507
		c-0.2903-0.5065-0.5806-1.013-0.8708-1.5195c-2.0654-0.4207-4.1517-0.7587-6.1924-1.2769
		c-7.2053-1.83-14.5663-3.2346-21.5549-5.6918c-14.449-5.0805-28.6517-10.856-43.0392-16.1178
		c-14.7735-5.403-29.5842-6.7692-45.0317-1.7825c-6.2647,2.0225-13.504,1.9744-20.204,1.5044
		c-14.2418-0.999-28.3648-5.1127-42.7289-2.2345c-10.7595,2.1557-21.4796,4.7252-31.985,7.8827
		c-17.9078,5.3823-35.8781,10.1372-54.6678,11.116c-1.5963,0.0832-3.1346,1.2816-4.6998,1.9619
		c0.8417,1.5216,1.3296,3.4887,2.5869,4.4872c5.3018,4.2107,11.6231,5.4964,18.2609,5.6783
		c19.2098,0.5262,37.6824-4.2635,56.2727-7.9792c15.3525-3.0685,30.4351-5.1896,45.8088,0.2728
		c7.2543,2.5776,15.2845,3.2333,22.6068,0.1989c14.43-5.98,29.0272-5.3167,43.6595-1.8942
		c17.8241,4.1691,35.5165,8.9026,53.2493,13.4567c1.1285,0.2899,2.1139,1.1373,4.203,2.3052
		c-10.1647,5.845-19.1667,11.4938-28.5854,16.3315c-15.8406,8.1365-32.3262,12.5463-50.0542,6.1414
		c-2.1895-0.7911-4.4382-1.4908-6.7164-1.9521c-13.6803-2.7701-27.2512-6.813-41.4672-4.0264
		c-7.6826,1.5059-15.4091,2.8444-23.0117,4.6878c-8.6268,2.0919-17.1086,1.9139-25.7347,0.0793
		c-16.4123-3.4906-30.8449-11.3872-45.1058-19.7386C860.6691,839.8331,858.9399,839.0929,857.2658,838.2585z M917.9565,483.8011
		c2.4164-1.7104,4.989-3.2453,7.1928-5.1965c1.3568-1.2013,3.2706-3.3672,2.9341-4.5124c-0.5008-1.7046-2.5474-3.619-4.3271-4.1614
		c-5.7165-1.7425-11.5471-3.3541-17.4506-4.1969c-23.8646-3.4067-46.8201-10.0063-69.3358-18.4862
		c-8.5513-3.2206-17.3917-5.7921-26.2604-8.023c-12.8795-3.2397-25.8192-1.5502-37.7898,3.287
		c-16.0118,6.4702-31.6049,14.0796-46.9579,22.0123c-4.4182,2.2828-7.6683,7.1454-10.9096,11.2545
		c-1.6747,2.1231-1.2715,4.8855,2.577,4.1227c6.1805-1.2251,12.4175-2.399,18.4083-4.2963
		c10.3026-3.2629,20.3052-7.5085,30.6707-10.5285c12.4595-3.6301,25.0099-5.2614,37.5697,0.6875
		c6.1234,2.9003,12.7854,4.7696,19.3369,6.6383c14.24,4.0619,28.4574,8.3012,42.8876,11.5693
		c13.4445,3.0448,27.0947,5.6098,41.0394,2.4504c1.2853-0.2912,3.6291,0.7852,4.3763,1.9409
		c6.3113,9.7621,12.1375,19.8429,18.5953,29.5031c3.1166,4.6622,7.1905,8.707,11.0353,12.8413
		c0.7785,0.8371,2.476,0.8198,3.7497,1.1965c0.0121-1.2286,0.4374-2.6537-0.0371-3.6508c-1.785-3.7513-3.6594-7.4914-5.8693-11.0035
		C932.49,506.2809,925.4198,495.4183,917.9565,483.8011z M819.7014,547.6742c-3.7005-1.4174-6.4892-2.7335-9.4161-3.5604
		c-8.9661-2.5331-18.0109-4.7897-26.9597-7.3797c-1.5787-0.4569-2.8425-2.0013-4.2518-3.0435
		c0.9781-1.265,1.7733-2.744,2.9636-3.7605c8.2485-7.0443,18.6333-9.3671,28.5637-12.6493c2.7801-0.9188,4.8187,0.4733,4.9235,3.297
		c0.3945,10.6228,6.441,18.1554,12.9956,25.6929c3.1255,3.5942,6.5311,5.4373,11.0943,5.6978
		c13.6351,0.7781,27.2645,1.6646,40.9034,2.3675c10.4575,0.5389,20.59-1.2334,30.345-5.0113
		c7.1808-2.781,8.3243-5.2505,3.6605-11.3958c-7.0281-9.2609-14.8694-17.903-22.302-26.8604
		c-0.8922-1.0752-1.3917-2.4763-2.0732-3.7262c1.4028-0.6999,2.739-1.6585,4.2234-2.0403c2.3406-0.602,4.7808-0.8163,7.9583-1.3177
		c-1.2635-1.4487-1.5086-1.9403-1.9008-2.1339c-0.7365-0.3635-1.5404-0.6428-2.3469-0.8049
		c-27.4189-5.5097-54.8165-6.2986-82.2521,0.0483c-20.4916,4.7405-39.3693,13.3349-57.6218,23.5057
		c-1.3023,0.7257-2.7816,1.4075-3.6771,2.515c-0.9665,1.1953-1.3433,2.8673-1.9773,4.3314c1.4158,0.5459,2.7993,1.2077,4.2541,1.614
		c3.2874,0.9182,7.3479,0.7747,9.7979,2.7065c15.0874,11.8969,32.8334,12.6354,50.7552,12.9764
		C817.7711,548.7506,818.1881,548.3814,819.7014,547.6742z M1129.2567,555.0642c0.0068,0.605,0.0135,1.21,0.0204,1.815
		c1.9745,0.3315,3.9397,0.8737,5.925,0.9612c14.787,0.6517,28.0416-4.5666,41.1685-10.563
		c3.1562-1.4417,6.9692-2.0574,10.4579-1.9848c3.366,0.0701,5.4171-0.5721,6.4481-3.8843c1.0542-3.3864-0.959-4.7654-3.4578-6.2108
		c-9.7866-5.6611-19.4606-11.5176-29.2626-17.1517c-4.7389-2.724-9.4069-6.2617-14.5621-7.4404
		c-14.7454-3.3712-29.6881-5.9361-44.6199-8.4181c-15.6493-2.6013-31.2235-1.5639-46.582,2.3455
		c-2.0728,0.5276-3.9785,1.7115-6.7189,2.9276c5.0887,4.0737,6.6532,8.2124,3.2823,12.8122
		c-1.5254,2.0815-3.9192,3.5528-6.0038,5.1932c-6.5284,5.1371-10.5554,11.8616-12.7321,19.7858
		c-0.9691,3.5283,0.4503,5.4633,4.0145,5.8613c5.1288,0.5728,10.259,1.4985,15.3964,1.552
		c10.0629,0.1049,20.1311-0.2886,30.197-0.4759c0.1368-0.9044,0.2737-1.8088,0.4105-2.7133
		c-3.3649-1.2504-6.6409-2.9191-10.1146-3.6573c-5.849-1.2432-11.8292-1.8607-17.743-2.8111
		c-3.0419-0.4888-4.4587-2.1485-3.2183-5.2697c1.776-4.4688,3.1714-9.1678,5.5388-13.3053
		c4.255-7.4364,10.5333-12.1561,20.4056-12.3792c-0.2429,2.9531-0.3986,5.3606-0.6454,7.7587
		c-1.4309,13.903,8.8433,31.093,20.7992,34.5432c12.5376,3.618,24.5625,1.015,34.7761-6.0392
		c6.8147-4.7067,11.0634-12.4692,8.6066-21.8689c-0.4772-1.8259-0.7026-3.7175-1.2219-6.5466
		c12.5078,4.0872,19.76,12.8063,28.1677,21.9291C1154.6787,547.1725,1140.766,547.9127,1129.2567,555.0642z M824.354,279.951
		c-0.1357-0.4715-0.2715-0.9431-0.4072-1.4146c-11.1292,3.235-22.2388,6.5396-33.3939,9.6825
		c-8.6011,2.4233-17.1384,5.4732-25.9214,6.7527c-12.027,1.752-23.3673,5.1009-34.2939,10.2429
		c-3.7208,1.751-4.3428,4.2527-3.4335,8.1225c3.8015,16.1782,7.1553,32.4622,11.018,48.6251
		c1.9252,8.0559,4.4054,15.9966,7.0103,23.865c1.2157,3.6723,4.0815,4.762,8.041,3.4906
		c30.7226-9.8648,61.4912-19.5865,92.217-29.4414c3.0174-0.9678,5.1316-2.6516,4.1613-6.6755
		c-5.3043-21.996-10.4202-44.0375-15.5797-66.0684C832.3916,281.2385,830.4402,279.7151,824.354,279.951z M1119.4832,589.4371
		c4.674-1.0753,12.0343-1.9827,18.7285-4.596c4.1814-1.6323,7.4871-5.704,10.8893-8.988c0.7827-0.7555,0.8964-3.0996,0.2952-4.0955
		c-0.4419-0.7322-2.7273-0.9603-3.8904-0.5533c-10.3752,3.6308-20.9612,2.9238-31.587,1.8629
		c-10.411-1.0394-20.8134-2.1932-31.2418-3.0115c-2.7419-0.2152-5.5668,0.626-8.3535,0.9822
		c2.007,2.6088,3.9531,5.2683,6.0592,7.7944c0.6029,0.7231,1.6631,1.0703,2.5234,1.5729
		C1093.3953,586.5325,1105.0017,588.2673,1119.4832,589.4371z M776.0139,394.6977c-11.7603,0.3185-41.0787,12.4649-48.4869,19.6731
		c-0.9203,0.8955-1.86,2.8418-1.4954,3.8169c2.7787,7.4314,5.6284,14.864,9.0814,21.9934c0.7346,1.5167,4.4671,3.0145,6.0765,2.4406
		c10.0143-3.5712,20.0596-7.2283,29.6378-11.8114c17.6863-8.4627,19.5671-16.0544,9.126-32.8871
		c-0.0877-0.1413-0.1329-0.332-0.2548-0.4256C778.1614,396.3179,776.6138,395.1518,776.0139,394.6977z M888.5325,567.9257
		c-0.2137-0.6335-0.4274-1.2671-0.6411-1.9006c-2.1064,0.2812-4.2728,0.337-6.3099,0.8787
		c-19.8338,5.2742-39.7034,5.578-59.6646,0.7505c-1.1348-0.2744-2.444,0.1724-3.672,0.2835
		c0.1908,1.3847-0.1235,3.3126,0.6693,4.0498c2.165,2.0133,4.5846,4.0404,7.2791,5.1495
		c15.5724,6.4103,31.5704,8.1913,47.8337,2.9199C880.3981,577.9921,884.8078,573.2343,888.5325,567.9257z M948.8461,698.8022
		c-9.5463-0.1981-17.9626,2.9479-25.282,8.9265c-1.205,0.9843-1.5756,2.9901-2.3318,4.5237
		c1.5804,0.549,3.1237,1.3852,4.7479,1.5951c5.6815,0.7342,11.4297,1.0117,17.0787,1.9218c5.3878,0.868,10.633,2.6945,16.0323,3.399
		c6.3297,0.826,9.2614-2.8719,7.8889-9.1171C965.3016,702.4136,959.436,698.7773,948.8461,698.8022z M968.0765,766.6139
		c0.0573-0.0142,0.1146-0.0285,0.1719-0.0427c0-4.1445,0.1356-8.2966-0.0923-12.4286c-0.0592-1.074-1.0453-2.4857-2.0009-2.983
		c-0.6231-0.3242-2.111,0.5358-2.9349,1.2054c-0.8666,0.7043-1.6387,1.7215-2.0477,2.761
		c-3.2869,8.3564-3.5312,16.8808-0.4437,25.2783c0.7055,1.9188,2.833,3.6459,4.7276,4.713c2.395,1.3488,4.2025,0.5563,3.9155-2.7162
		C968.9108,777.1413,968.5055,771.8765,968.0765,766.6139z"/>
	<path class="st0" d="M1205.8848,87.4547c-0.8698,0.44-1.6946,1.0464-2.616,1.2951c-13.5723,3.6643-22.0035,13.9869-30.5858,23.9308
		c-6.7435,7.8133-13.0828,15.9924-19.3109,24.2288c-6.0424,7.9908-13.49,14.222-22.093,19.201
		c-1.4054,0.8134-2.7402,1.7489-4.1077,2.6279c0.1514,0.5084,0.3026,1.0169,0.4539,1.5253
		c5.8854-1.5616,11.9921-2.5647,17.6134-4.7925c15.199-6.0237,25.4861-17.7869,34.3881-30.9396
		c5.1897-7.6678,5.7454-7.6677,14.1099-3.9409c6.213,2.7681,12.6622,5.0631,19.1398,7.1553
		c3.0541,0.9864,5.0601,1.9574,4.985,5.6635c-0.02,0.9927,2.0295,2.8902,3.1608,2.9148c19.099,0.4166,37.8596,3.3065,56.2714,8.1259
		c15.3066,4.0066,29.3899,10.6819,40.7339,22.1633c0.9327,0.944,1.7446,2.0154,2.5472,3.0771
		c0.582,0.7699,1.0557,1.6217,2.2712,3.5205c-11.3203-4.3914-21.9845-4.9287-32.8477-4.1298
		c-7.5533,0.5555-13.7406,3.8923-19.2548,8.6267c-4.632,3.9767-4.2498,7.2333,1.0236,10.0688
		c29.4701,15.8463,45.4886,41.5652,53.7347,73.0021c0.3464,1.3207,0.1957,2.772,0.3541,5.4962
		c-2.5122-1.6139-4.062-2.3825-5.3345-3.4742c-2.6534-2.2764-5.3199-4.5754-7.6934-7.1321
		c-4.7133-5.077-10.4639-6.6818-17.1909-6.0896c-5.5986,0.4929-6.699,1.8262-5.3501,7.2873
		c1.5936,6.4511,3.97,12.8456,4.5206,19.3897c1.2273,14.5857,2.3086,29.264,2.0315,43.8777
		c-0.4443,23.4343,1.692,46.4566,6.0242,69.4849c1.3359,7.1013-0.3395,15.3295-2.5984,22.4162
		c-3.4719,10.892-9.764,20.9302-12.8213,31.8987c-4.4518,15.972-7.187,32.4298-10.4668,48.7181
		c-1.6909,8.3972-2.9768,16.8758-4.4457,25.3177c-0.5638-0.0388-1.1278-0.0776-1.6917-0.1165
		c-0.3046-2.3768-0.6357-4.7506-0.9092-7.131c-1.8798-16.3595-3.0107-32.8485-5.8268-49.0448
		c-2.809-16.1562-10.3795-30.482-21.0537-43.0746c-5.043-5.9495-9.2091-12.4174-10.9321-20.0985
		c0.5497-0.482,1.0994-0.964,1.6489-1.446c2.0525,3.076,4.105,6.152,6.1576,9.228c0.8224-0.5557,1.6448-1.1115,2.4672-1.6672
		c-3.8679-10.6658-7.7358-21.3316-11.6039-31.9974c0.3998-0.2154,0.7996-0.4307,1.1992-0.6461
		c1.1951,1.3791,2.3901,2.7582,4.1815,4.8255c0.4702-1.7126,1.0902-2.8458,1.038-3.9471
		c-1.0093-21.2617,1.5087-42.6237-2.7513-63.8128c-5.2032-25.8801-14.5969-49.1661-36.5593-65.6018
		c-0.9824-0.7352-1.6394-1.9052-2.7628-3.2494c17.1313-5.3393,30.8696-14.9083,43.0872-26.7685
		c-0.3136-0.7391-0.6272-1.4782-0.9408-2.2172c-3.084,0.9424-6.2806,1.6202-9.2308,2.8767
		c-8.8883,3.7856-17.6481,7.8718-26.5167,11.7049c-24.5609,10.6156-50.4045,12.183-76.5609,9.9289
		c-31.9246-2.7513-63.2716,0.0473-94.0602,8.5935c-15.6132,4.3339-30.4093,10.9061-44.3427,19.2451
		c-4.2376,2.5363-8.0825,4.1454-12.9288,1.0627c-2.0571-1.3085-5.1103-1.2476-7.7373-1.4326
		c-20.8399-1.4676-41.1351-5.7656-61.4546-10.5123c-29.3398-6.8538-58.9096-12.7617-88.4738-18.6051
		c-24.3491-4.8126-48.869-8.7594-73.2264-13.5327c-4.9348-0.9671-9.45-3.993-14.2144-5.9328
		c-6.5155-2.6528-13.0843-5.1746-19.962-6.9881c7.2407,13.2678,21.8149,14.1525,33.1516,20.579
		c-31.1498-2.088-59.5187-13.246-87.1846-26.7856c-0.3364,0.4764-0.6727,0.9529-1.009,1.4293c1.0075,1.4791,1.8,3.179,3.0562,4.4028
		c10.6677,10.392,23.9683,16.3111,37.7987,20.7185c11.8489,3.776,24.1586,6.1054,36.26,9.0923
		c0.9335,0.2304,1.8324,0.6013,3.0328,1.0022c-0.809,4.3882-3.9628,5.2088-7.335,5.2803
		c-13.6528,0.2894-27.3094,0.6409-40.9629,0.5802c-16.6343-0.074-32.2964,4.1881-47.6783,9.9167
		c-1.5526,0.5782-2.9213,1.6504-3.9496,3.4593c14.6963-1.6581,29.3561-3.966,44.099-4.792
		c14.8045-0.8294,29.6918-0.1824,44.989-0.1824c-0.6702,1.2202-1.0684,2.5214-1.9111,3.3924
		c-12.4364,12.8541-18.2438,29.2833-24.418,45.4622c-6.9471,18.2043-13.0724,36.7707-25.3297,52.3975
		c-0.2801,0.3571-0.3351,0.8907-0.8793,2.4252c10.3117-5.1213,16.1179-13.8039,23.3345-21.2223
		c-2.116,13.3625-7.3873,25.3476-13.5721,37.017c0.3483,0.3112,0.6966,0.6225,1.0449,0.9338
		c1.8978-0.9818,3.7956-1.9636,5.6934-2.9454c0.401,0.1729,0.8019,0.3458,1.2029,0.5187
		c-3.2936,8.1332-6.5873,16.2664-9.8809,24.3997c0.6631,0.3848,1.3264,0.7697,1.9895,1.1545
		c3.2419-4.3121,6.4838-8.6243,10.5815-14.0746c0,3.5096,0.4728,5.9624-0.0776,8.1587
		c-3.2753,13.0685-6.3713,26.2051-10.3135,39.0782c-6.5284,21.318-14.1458,42.3101-20.3716,63.7107
		c-5.0518,17.365-6.1813,35.4006-5.9308,53.4803c0.0356,2.5681-0.2151,5.14-0.3333,7.7102
		c-0.4787,0.0799-0.9574,0.1599-1.4361,0.2397c-0.5938-1.9001-1.2786-3.777-1.7671-5.7038
		c-4.3322-17.0886-8.6299-34.186-12.9372-51.281c-6.184-24.5432-13.2731-48.9039-18.2709-73.6863
		c-4.1642-20.6486-7.4742-41.675-4.9944-62.9906c1.8658-16.0383,4.5677-32.0302,5.4081-48.1206
		c0.6462-12.3716-1.0018-24.8656-1.6863-37.302c-0.1639-2.979-0.8655-5.9561-0.766-8.9154
		c0.1516-4.5067-2.3288-6.0453-5.9133-4.8074c-3.8247,1.3209-7.3694,3.6096-10.8032,5.8356
		c-1.6122,1.0451-2.5459,3.0832-4.0325,4.3927c-1.1395,1.0038-2.6638,1.5708-4.0169,2.3321
		c-0.3102-1.6707-1.3911-3.7018-0.8057-4.9539c3.8475-8.2291,7.4907-16.6445,12.3068-24.3037
		c4.5856-7.2927,10.6554-13.6384,15.7574-20.6305c1.2101-1.6583,1.1605-4.2357,1.6904-6.3903
		c-2.0544-0.0391-4.2389-0.5473-6.1366-0.0212c-4.153,1.1512-8.1089,3.0064-12.2538,4.1962
		c-1.5557,0.4465-3.4124-0.1553-5.1318-0.2793c0.4565-1.6339,0.4993-3.5688,1.4344-4.8548
		c8.3331-11.4587,17.8674-21.5094,31.6234-26.6077c4.6007-1.7052,2.9041-5.1692,1.1826-7.8058
		c-6.6368-10.1652-9.7177-21.5503-11.3668-33.3185c-0.7534-5.3764-0.3091-10.9469-0.085-16.4162
		c0.0594-1.4494,1.3161-2.8497,2.0231-4.2725c1.4686,0.8952,3.1638,1.5592,4.3604,2.7318c2.8432,2.7859,5.075,6.3485,8.2648,8.5821
		c2.8409,1.9893,6.5537,3.0437,10.0352,3.7164c3.1718,0.6129,5.1398-1.318,5.9097-4.6756
		c4.5605-19.8912,15.0627-36.4557,29.0829-50.9406c17.8674-18.4596,39.9924-29.6139,64.3016-36.8321
		c7.9737-2.3677,16.076-4.3093,24.1464-6.3391c2.1506-0.5409,4.4003-0.688,6.6046-1.0158c0.2181,0.4334,0.4361,0.8667,0.6541,1.3001
		c-1.6265,1.4739-3.2632,2.9367-4.8777,4.4236c-5.6207,5.1766-11.3278,10.2644-16.8177,15.5763
		c-3.8744,3.7488-4.5845,8.6703-4.3735,15.3426c4.3144-1.4087,8.3585-2.1118,11.7867-3.9581
		c13.0952-7.0526,26.1655-14.2171,41.1204-16.3329c9.3727-1.326,18.8698-1.8861,28.3316-2.4383
		c9.8132-0.5728,19.6489-0.849,29.4789-1.0269c16.3066-0.2952,32.1302-3.1558,47.5654-8.3588
		c3.2341-1.0901,6.55-1.9374,9.8283-2.8966c0.2803,0.442,0.5606,0.884,0.8409,1.326c-1.0919,1.16-1.9955,2.6262-3.3055,3.4314
		c-10.3585,6.3667-20.8273,12.5541-31.1863,18.9199c-3.0543,1.8769-5.8658,4.1489-8.7886,6.2399
		c0.1764,0.6225,0.3528,1.2451,0.5293,1.8676c3.93-0.366,7.9568-0.3198,11.7631-1.2131c3.8538-0.9044,7.7902-2.2364,11.1645-4.2584
		c10.1851-6.1034,21.2593-9.4722,32.7774-11.6806c18.3092-3.5105,36.6141-7.048,54.9564-10.3781
		c3.8632-0.7014,7.8802-0.5561,11.8264-0.8009c0.1779,0.502,0.3557,1.0041,0.5335,1.5061c-2.1815,1.1378-4.408,2.1979-6.5349,3.43
		c-4.1541,2.4065-8.4307,4.6665-12.2824,7.4964c-1.4507,1.0659-2.6835,3.6497-2.4659,5.3423
		c0.1494,1.1617,2.858,2.4501,4.6179,2.8767c13.5353,3.2806,27.2312,2.8296,40.6818,0.0398
		c12.9187-2.6795,25.2527-7.3408,36.4689-14.5871c5.8031-3.7492,11.2338-7.7501,14.2213-14.3097
		c0.7163-1.5726,2.0623-2.8586,3.4431-4.7119c4.9631,8.258,7.5385,16.4476,8.3375,25.3694
		c2.2959,25.6359-3.9685,49.185-16.512,71.3894c-10.9294,19.3472-27.1749,34.0066-42.8048,49.2219
		c-11.6068,11.2988-22.9017,22.8614-31.0855,37.0012c-5.3583,9.2579-9.2786,19.057-9.2968,30.5698
		c1.2903-1.2318,2.9836-2.2399,3.8107-3.7289c13.572-24.4339,33.7933-43.1913,53.2793-62.5682
		c14.672-14.5897,29.2927-29.2673,39.75-47.3184c8.2761-14.2861,15.9326-28.951,17.6169-45.8167
		c0.4944-4.949,3.0962-6.9023,7.7455-5.5312c12.4406,3.6686,24.8611,7.4164,37.2023,11.4028
		c3.4017,1.0988,3.0215,3.3756,0.5961,5.6607c-8.726,8.2209-17.4364,16.4601-26.0198,24.8287
		c-1.5122,1.4744-2.3866,3.6029-4.3093,6.6071c13.4218-2.8685,23.7892-8.1461,33.0481-15.755
		c8.7504-7.1909,17.3351-14.5996,26.3286-21.473c7.0786-5.41,15.0801-9.2191,24.1221-10.1714
		c1.9431-0.2047,3.9545,0.2376,5.9343,0.3818C1205.3588,86.2908,1205.6218,86.8727,1205.8848,87.4547z M922.6599,243.6566
		c0.399-0.463,0.798-0.9261,1.197-1.3891c-1.7249-2.3629-3.4426-4.7311-5.1759-7.0877
		c-7.0536-9.5899-15.5019-18.2718-17.3975-30.9066c-2.8993-19.3254-11.3292-35.8626-25.1333-49.9451
		c-8.3507-8.5192-16.1416-17.7371-23.129-27.4036c-8.2279-11.3825-10.479-24.2653-5.6069-37.9212
		c0.6747-1.891,0.9118-3.938,1.3515-5.9128c-0.4487-0.2593-0.8973-0.5185-1.3459-0.7778c-1.6989,1.875-3.6456,3.5809-5.0582,5.6513
		c-14.0979,20.6613-10.9005,45.1578,8.0033,61.5287c5.7872,5.0117,12.1176,9.4717,17.4304,14.9323
		c4.4441,4.5677,8.382,9.8933,11.4158,15.4943c3.1428,5.8024,4.7998,12.3929,7.3312,18.5463
		c6.7407,16.3855,15.8074,31.1322,30.3617,41.8515C918.6793,241.6247,920.7344,242.5527,922.6599,243.6566z M795.7073,119.1937
		c-0.785,0.2229-1.5701,0.4458-2.3552,0.6686c-0.121,1.734-0.525,3.502-0.3215,5.197
		c4.4434,37.0215,21.7571,65.6104,55.1829,83.4259c11.6099,6.1879,23.5414,11.7737,35.1326,17.9948
		c5.3241,2.8575,10.1815,6.5844,16.176,10.5255c-0.5566-1.7472-0.6979-2.3473-0.9337-2.9077
		c-4.3039-10.2257-12.2563-17.5259-20.7993-23.8229c-10.5682-7.7899-21.9053-14.55-33.0156-21.5888
		c-22.1096-14.0072-35.5432-34.5799-44.6614-58.4827C798.7034,126.5108,797.1784,122.8625,795.7073,119.1937z M698.6396,128.2104
		c0.4664,0.0377,0.9328,0.0755,1.3992,0.1132c0.7691,3.1557,1.2589,6.4207,2.4314,9.4186c0.5428,1.3879,2.4164,2.2554,3.6867,3.3588
		c1.0245-1.2692,2.6596-2.4152,2.9459-3.8334c0.5858-2.9027-0.0148-6.0695,0.7112-8.9138c1.199-4.6975,3.0619-9.2257,4.8674-14.4715
		c2.6396,3.1556,4.233,5.0606,6.5825,7.8693c2.5751-10.8537,4.8389-20.3956,7.1681-30.2128
		c-4.1284-1.0687-6.1262,1.2857-7.7267,4.4585c-1.0387,2.059-1.8644,4.3523-3.3638,6.021
		c-2.0054,2.2318-3.8596,1.6991-4.4149-1.4445c-0.2938-1.6631-0.382-3.3624-0.5631-5.0454
		c-0.5942-0.2285-1.1885-0.4571-1.7827-0.6856c-2.0084,2.8405-4.2079,5.5674-5.981,8.5478
		c-2.7067,4.5499-4.2781,10.1135-7.8691,13.7132c-4.483,4.494-6.4229,9.6405-7.4653,15.3401
		c-1.7546,9.5939-1.3549,19.0417,5.0276,27.0852c1.3044,1.6438,4.0747,2.1245,6.1693,3.1414
		c0.1571-2.0176,0.6839-4.0881,0.4042-6.0433c-0.9646-6.7415-2.4386-13.4158-3.2365-20.1725
		C697.3146,133.7836,698.2654,130.963,698.6396,128.2104z M1147.8617,203.0788c0.1986,0.8558,0.3972,1.7115,0.5959,2.5673
		c2.884,0.1048,5.7682,0.2983,8.6522,0.2954c5.4022-0.0055,10.8041-0.1446,16.2064-0.1894
		c3.3593-0.0279,7.0266,0.9105,10.0277-0.121c17.3871-5.976,29.6892-18.4401,40.3109-32.8377
		c0.5447-0.7383,0.538-1.8834,1.1357-4.1686c-10.2383,7.0544-18.3472,15.1415-30.2133,16.8331
		c4.6636-4.9515,9.327-9.903,13.9906-14.8545c-0.2855-0.2863-0.5712-0.5725-0.8567-0.8588
		C1187.7615,180.8561,1167.8115,191.9674,1147.8617,203.0788z M1283.8741,312.5406c0-4.3241,0.1326-8.2523-0.0507-12.1657
		c-0.1061-2.2699-0.0626-4.9523-1.2208-6.6957c-4.485-6.7511-9.108-13.4622-14.2703-19.6996
		c-7.775-9.3945-19.6112-11.3687-30.3035-15.2294c-1.8224-0.658-4.3748,0.7056-7.0884,1.2319
		C1247.0159,280.3156,1277.116,310.2009,1283.8741,312.5406z M623.9297,353.1644c0.6984,0.3798,1.3969,0.7596,2.0952,1.1394
		c1.5015-1.5526,3.161-2.9832,4.4719-4.6828c2.8336-3.6739,5.2775-7.663,8.2582-11.2057
		c7.2816-8.6548,14.7907-17.1179,22.181-25.6817c3.1865-3.6924,5.1223-7.7813,4.4094-13.4728
		c-9.9941,8.9411-19.259,17.2298-28.5239,25.5185c-0.5894-1.7966-0.4819-3.0481,0.1964-3.7416
		c7.527-7.6964,14.9848-15.4731,22.8076-22.8615c3.3547-3.1683,7.6795-5.2901,11.218-8.2944
		c1.1004-0.9343,1.0658-3.2053,1.5508-4.8643c-1.6397,0.1168-3.6815-0.3554-4.8543,0.4451
		c-8.1099,5.5359-16.7219,10.6093-23.8192,17.2725c-6.1832,5.805-10.8834,13.3073-15.6163,20.471
		c-1.5297,2.3153-1.2533,5.9208-1.5005,8.9608c-0.2879,3.5401,0.0463,7.1463-0.4257,10.6516
		C625.9077,346.3138,624.7732,349.7195,623.9297,353.1644z M1085.7218,215.1319c0.1986,0.5277,0.3972,1.0554,0.5959,1.5831
		c1.9308,0,3.9207,0.3077,5.7833-0.0483c16.2356-3.1027,32.2332-7.1958,47.0441-14.68
		c16.8672-8.5233,32.7244-18.5838,44.652-33.7209c1.2896-1.6367,2.2344-3.545,3.3392-5.3272
		c-0.5526-0.6035-1.1052-1.207-1.6578-1.8105C1156.2278,186.6009,1119.8356,198.7392,1085.7218,215.1319z M1094.7867,195.2278
		c25.6742,4.8748,84.9836-31.9733,84.8927-52.495c-2.5502,2.0497-4.7408,3.7217-6.832,5.5101
		c-3.9183,3.351-7.6034,6.9997-11.6942,10.1199c-17.0699,13.0198-36.2722,22.24-55.7371,30.9898
		C1102.0535,190.8643,1098.9335,192.9157,1094.7867,195.2278z M1244.7394,229.7005c-0.1555-0.4195-0.311-0.839-0.4664-1.2585
		c-6.089,1.889-12.2372,3.6143-18.2255,5.7816c-1.5042,0.5444-2.4952,2.5063-3.722,3.8168c1.901,0.8961,3.9839,2.8161,5.6724,2.516
		c8.5663-1.5223,16.6108,0.5999,24.5699,2.9812c7.95,2.3786,15.688,5.458,23.5884,8.0157c1.5002,0.4857,3.3248-0.0309,4.9999-0.0851
		c-0.1277-2,0.1492-4.1481-0.512-5.9527c-0.5222-1.4253-2.103-2.542-3.3762-3.6003
		C1267.8362,234.0749,1256.9669,230.0481,1244.7394,229.7005z M970.2241,88.6287c-0.3253-0.6649-0.6507-1.3298-0.976-1.9947
		c-4.4429,1.6175-8.8856,3.2351-14.4214,5.2505c0.9307-2.5449,1.9288-4.0361,1.8364-5.4564
		c-0.0616-0.948-1.8633-2.6979-2.5668-2.5517c-10.2377,2.1278-22.6776,17.158-23.0122,27.6409
		c-0.0571,1.7891,0.0313,3.7822,0.7615,5.3512c1.1487,2.4685,3.9899,3.2026,4.8669,0.5099
		c2.0358-6.2501,7.4984-7.5467,12.2726-9.9785C957.7404,102.9408,964.2296,96.0573,970.2241,88.6287z M959.6772,230.164
		c-3.814-31.2866,5.5812-59.567,20.3688-87.8026C957.6632,151.8988,943.9403,212.8806,959.6772,230.164z M769.8218,110.8919
		c-9.7961,15.7045,8.4343,63.3,25.4475,68.7032C786.8646,156.9041,778.4335,134.1416,769.8218,110.8919z M900.7281,92.5808
		c-0.4429-0.6107-0.8857-1.2214-1.3286-1.8321c-2.7123,0.9993-5.8516,1.4295-8.0674,3.091
		c-13.7687,10.3237-16.6152,37.3212-5.481,50.502c0.9004,1.0659,2.3501,1.668,3.5446,2.4855
		c0.4144-0.1799,0.8287-0.3598,1.2431-0.5398C884.8323,126.6278,888.1556,108.718,900.7281,92.5808z M710.2166,260.0317
		c-0.1838-0.5332-0.3677-1.0665-0.5516-1.5997c-16.5993-3.2308-67.0839,16.0643-71.1411,27.8787
		C662.7589,277.4273,686.4877,268.7295,710.2166,260.0317z M764.8087,154.2676c0.541-0.1512,1.0819-0.3024,1.6228-0.4536
		c-4.5602-18.1764-9.1206-36.3528-13.8363-55.1489C742.0054,107.8868,750.5843,143.2189,764.8087,154.2676z M912.0648,128.3252
		c6.4686-17.0946,17.5406-31.1702,28.8265-45.2451c-9.2001-1.4559-14.8828,3.6775-19.7471,9.4983
		C912.5458,102.8673,909.7136,114.9138,912.0648,128.3252z M1281.4426,272.7044c-0.1351-8.5476-30.5321-25.6105-45.1702-25.6461
		C1249.182,261.0414,1267.0829,263.7393,1281.4426,272.7044z M626.1985,375.2657c10.5316-15.9756,20.6636-31.345,30.7915-46.7083
		C647.5089,328.4532,624.1184,363.0848,626.1985,375.2657z"/>
	<path class="st0" d="M1266.3041,672.9481c4.6239,2.6851,7.7224,1.2474,10.5443-0.9852
		c8.6544-6.8467,15.0909-15.6391,19.9517-25.3298c6.8016-13.5606,8.9927-28.2528,7.1971-43.2927
		c-0.6559-5.4944-2.8914-10.8022-4.4406-16.1852c-0.181-0.6291-0.8552-1.2041-0.8357-1.7886
		c0.1108-3.3102,0.3634-6.6157,0.5679-9.9227c1.9727,2.1145,3.9559,4.2191,5.9133,6.3477c0.9575,1.0413,1.8424,2.9451,2.8046,2.9738
		c1.0647,0.0319,2.6223-1.4272,3.1729-2.6068c0.8872-1.9014,1.5908-4.1161,1.5452-6.1803
		c-0.1138-5.1483,0.0879-10.4966-1.2316-15.3887c-3.9424-14.6165,0.3328-28.0089,5.0699-41.4292
		c0.4669-1.3228,1.422-2.4733,2.1506-3.7038c0.5421,0.0911,1.0842,0.1821,1.6265,0.2732
		c-1.7314,29.1652-3.4685,58.33-5.1893,87.4959c-0.3431,5.8139-0.8796,11.631-0.8894,17.4474
		c-0.0422,25.1973-10.6748,47.104-21.0518,69.148c-6.1655,13.0972-11.6672,26.5106-17.9816,39.5325
		c-4.0323,8.3161-11.3889,10.8994-20.189,8.2002c-5.3914-1.6537-7.1782-3.9438-6.327-9.6009
		c1.5853-10.538,3.911-20.9721,5.2792-31.5336c2.7815-21.4708,5.4528-42.9658,7.5793-64.509
		c2.8363-28.7311,10.9509-56.4899,15.032-84.9883c2.0283-14.1638,5.0592-28.1819,7.4556-42.2965
		c0.726-4.2762,2.7512-6.1528,7.1074-5.5667c7.9041,1.0633,15.8409,1.9009,23.7234,3.1003
		c3.1788,0.4836,3.8728,3.5937,0.8395,5.3227c-4.4712,2.5487-5.005,6.5912-6.0098,10.7445
		c-5.2393,21.6585-14.0582,41.9389-23.7953,61.8776c-2.629,5.3832-5.0165,10.9037-7.1803,16.4907
		c-3.8804,10.0189-4.5353,20.126,0.3086,30.0766c5.8729,12.0645,4.2726,23.1889-3.8129,33.6871
		C1272.1583,664.3582,1269.3813,668.5919,1266.3041,672.9481z"/>
	<path class="st0" d="M612.9844,584.4969c0.8145-3.9172,1.5475-7.4434,2.3618-11.3593c7.4828,4.4254,7.9481,7.4213,3.0416,12.804
		c-0.5325,0.5842-1.0499,1.3212-1.2279,2.0698c-7.9728,33.5204,0.7903,62.2554,26.9477,85.7045
		c1.2893,1.1559,2.9191,1.9319,4.6166,3.0312c2.7636-4.0994,0.7261-7.2073-0.7533-10.2231
		c-2.2686-4.6246-4.776-9.132-7.1782-13.6911c-2.5552-4.8496-2.5695-9.8979-1.1661-15.0551
		c1.2242-4.4982,2.3147-9.038,3.6982-13.4867c3.3365-10.7288,2.3214-21.1949-2.4662-31.1245
		c-3.8202-7.923-8.2422-15.582-12.7875-23.1229c-6.6972-11.1111-14.7267-21.5378-20.329-33.153
		c-4.5514-9.4365-6.4344-20.1727-9.3549-30.3743c-0.795-2.777,0.7133-4.4428,3.4997-4.9259
		c7.0479-1.2219,14.0988-2.4254,21.1463-3.6497c3.0323-0.5268,4.485,0.9163,5.4933,3.6971
		c11.588,31.959,17.8366,65.0607,21.8535,98.7158c3.2544,27.2669,6.9257,54.4911,10.9121,81.6608
		c2.1696,14.7868,5.3071,29.4352,8.175,44.1133c0.7101,3.6341-0.3016,5.6508-3.8503,6.7941
		c-5.145,1.6577-9.6673,0.8851-13.1208-3.2878c-2.6406-3.1906-5.505-6.5024-7.0168-10.2638
		c-4.7994-11.9408-11.9825-22.2395-20.3809-31.7996c-12.1038-13.7782-18.1802-30.2042-20.1793-48.0722
		c-1.7374-15.528-2.6771-31.1622-3.4377-46.7754c-0.371-7.6163,0.1779-7.6308,7.6748-7.9052
		C610.6207,584.7644,612.0806,584.5753,612.9844,584.4969z"/>
	<path class="st0" d="M751.5283,885.0695c-7.6552,0-15.3195,0.2033-22.9592-0.1407c-1.9474-0.0876-4.4587-1.4545-5.583-3.0356
		c-2.0876-2.9357-3.816-6.3193-4.8613-9.7686c-3.3763-11.1414-6.2973-22.4199-9.5547-33.5986
		c-1.3485-4.6279,1.4136-5.0033,4.7151-5.15c18.7888-0.8344,37.5783-1.6556,56.3648-2.5382
		c3.9862-0.1873,7.9708-0.5235,11.9384-0.9538c3.0965-0.3358,4.7448,0.8995,5.0958,3.9667
		c1.6458,14.3839,3.2899,28.7681,4.9532,43.1499c0.5054,4.3699-2.1304,6.1918-5.8026,6.5403
		c-11.3978,1.082-22.8187,1.9194-34.2307,2.8517C751.5789,885.9515,751.5536,885.5105,751.5283,885.0695z"/>
	<path class="st0" d="M999.6261,1038.0952c0-23.4012-0.0251-45.1768,0.0139-66.9523c0.0134-7.4562,0.5115-8.0148,7.9581-7.8016
		c14.1496,0.4049,28.291,1.1308,42.442,1.4266c4.4028,0.092,4.1746,2.6782,4.1847,5.6259
		c0.0583,16.9969,0.1509,33.9937,0.2332,50.9905c0.059,12.194,0.1364,12.8891-11.9606,14.2209
		C1028.5033,1037.1459,1014.3569,1037.3026,999.6261,1038.0952z"/>
	<path class="st0" d="M692.0028,765.269c6.7081,0,12.6566-0.1432,18.5959,0.0286c14.2901,0.413,28.5744,1.0267,42.8645,1.4385
		c3.7191,0.1072,5.7387,1.15,6.0215,5.412c0.5391,8.1232,1.5349,16.2278,2.6579,24.296c0.5594,4.0188-0.4313,6.0107-4.7665,6.0209
		c-18.1319,0.0427-36.2636,0.2297-54.3953,0.2123c-1.1894-0.0012-3.2319-1.0752-3.4366-1.9772
		C696.9415,789.2342,694.6028,777.7083,692.0028,765.269z"/>
	<path class="st0" d="M600.6814,559.1044c0-5.4305,0-9.7865,0-14.6805C605.9156,549.2939,606.155,554.5967,600.6814,559.1044z"/>
	<path d="M1222.8949,490.312c-3.4471-1.3212-5.8173-2.0265-8.0049-3.103c-9.705-4.7757-19.345-9.6836-29.0406-14.4784
		c-1.7819-0.8812-3.6693-1.6208-5.5851-2.1437c-3.5038-0.9563-6.2543-0.7067-6.4878,4.0433
		c-0.2137,4.3476-2.5896,6.4822-7.1924,6.3526c-4.3192-0.1216-8.6543,0.4562-12.9812,0.4389
		c-6.5693-0.0263-8.8835-2.2006-9.689-8.8344c-0.4319-3.558-0.6793-7.1384-1.0844-11.5092
		c-7.4795,2.8678-14.0729,5.4563-20.7095,7.9285c-17.15,6.3886-34.0717,13.5562-51.5734,18.7726
		c-10.5144,3.1338-21.9556,3.1223-32.9554,4.6971c-2.0032,0.2868-4.8455,0.8383-5.6742,2.2335
		c-6.7076,11.2922-13.6115,22.5332-19.3045,34.3445c-6.0233,12.4962-3.8408,26.152-3.1698,39.4335
		c0.4955,9.8081,1.3658,19.5969,2.0185,29.3976c0.581,8.7238,2.318,11.6328,11.1321,13.5512
		c9.8855,2.1516,20.0098,3.2516,30.0613,4.5718c4.1169,0.5406,8.3163,0.4445,12.4766,0.6656
		c3.061,0.1627,5.2419,1.5374,5.2253,4.8251c-0.0651,12.8159,0.0798,25.6479-0.5425,38.4403
		c-0.3672,7.5497-1.7045,8.2921-9.265,10.157c-11.8248,2.9167-23.6766,3.7209-35.6158,0.6982
		c-0.9279-0.2349-1.9073-0.2656-3.9248-0.5309c1.0528,2.2435,1.7387,3.792,2.4957,5.3048
		c5.916,11.8212,11.4364,23.6426,10.4501,37.508c-0.7836,11.0121-6.2817,18.5925-15.8246,23.0113
		c-9.9988,4.6298-20.1048,4.0131-29.5128-2.1955c-3.6093-2.3818-3.322-5.9235-2.213-9.4097
		c3.4795-10.9374,11.2726-17.8132,21.4608-22.3295c2.8937-1.2828,5.8442-2.4373,8.7697-3.6484
		c2.6938-1.1152,3.5059-2.8642,1.9424-5.5073c-7.5392-12.7461-12.3751-26.5144-15.4067-40.9554
		c-1.0959-5.2203-4.2123-7.3218-9.5446-8.4822c-17.8387-3.8821-33.1142,2.872-48.2515,10.5041
		c-12.2355,6.1692-24.5562,11.7322-38.3622,13.7169c-11.3359,1.6296-20.8951-2.9229-30.6307-7.1807
		c-1.0516-0.4598-1.8017-2.7701-1.8254-4.2361c-0.1961-12.1573-0.2926-24.3188-0.2032-36.4773
		c0.0545-7.4171,0.4133-6.9031,7.5815-7.8375c15.9899-2.0846,31.8956-4.8212,47.8246-7.361
		c4.3805-0.6984,4.6366-4.3167,4.8262-7.6677c0.3266-5.7692,1.6293-10.9111,5.3881-15.71
		c6.0969-7.784,14.1053-11.231,23.4584-11.2703c10.7778-0.0452,21.5596,0.8563,32.3395,1.3522
		c1.1379,0.0524,2.274,0.142,4.1686,0.2625c0-3.0109,0.1752-5.7643-0.0276-8.4895c-1.5977-21.4658,3.0138-41.3936,14.7571-59.5197
		c1.9828-3.0606,4.3724-5.8889,6.8065-8.6172c2.4396-2.7344,2.1447-5.0109-0.5591-7.1895c-2.9836-2.4041-6.061-4.6954-8.9849-7.1689
		c-1.5158-1.2824-3.0605-2.6849-4.0825-4.3465c-0.7755-1.2609-1.2928-3.1943-0.8739-4.4881
		c0.2615-0.8076,2.5018-1.4448,3.8109-1.3728c20.8427,1.1448,40.6122-3.7942,60.261-9.9929
		c19.2015-6.0576,38.5692-11.5911,57.8921-17.2589c2.5365-0.744,5.2444-1.3081,7.8649-1.2769
		c5.3826,0.0641,7.0793-2.9225,6.9088-7.5825c-0.2618-7.1567-0.4396-14.3329-1.1515-21.451
		c-0.4736-4.7352,1.2383-7.835,5.7198-8.2678c7.2365-0.6989,14.5767-1.0215,21.8042-0.5175c1.423,0.0992,3.4723,4.6069,3.619,7.1736
		c0.4937,8.6395,0.4655,17.3262,0.233,25.9839c-0.1632,6.0785,1.761,9.6458,7.5917,12.8392
		c16.28,8.9163,29.2643,21.8593,40.2128,36.8159C1222.0924,487.4077,1222.156,488.0978,1222.8949,490.312z M1002.9846,640.3964
		c0.2834-1.0715,0.6053-1.7035,0.5937-2.3292c-0.3441-18.4796-0.7715-36.9577-1.0562-55.4381
		c-0.0679-4.401-2.3388-5.882-6.3652-6.6367c-16.0543-3.0092-31.5363-0.2671-46.8115,4.3558
		c-5.7278,1.7334-7.5029,4.7513-7.3596,10.9941c0.1912,8.3248,0.6771,16.644,0.7972,24.969
		c0.1433,9.9449,0.0338,19.8936,0.0338,31.3923C962.6293,637.2898,982.2717,635.583,1002.9846,640.3964z M937.5657,634.7429
		c0.2308-0.0087,0.4615-0.0175,0.6923-0.0263c-0.4252-6.4764-0.9182-12.9493-1.2515-19.4305
		c-0.2218-4.3127-1.7791-5.6257-6.3695-4.6323c-14.6377,3.1677-29.3532,6.0153-44.113,8.554
		c-4.3099,0.7413-5.5962,2.418-5.1682,6.5515c0.9608,9.2794,1.8026,18.5784,2.35,27.8895c0.217,3.6906,1.6693,5.3966,5.2455,5.92
		c13.8105,2.0213,27.2031,0.4924,40.3331-4.1613c5.8738-2.0819,9.2488-5.4697,8.3436-12.1799
		C937.2528,640.4472,937.5657,637.5739,937.5657,634.7429z M1008.183,613.8098c0.9213,12.7427-1.8204,25.6403,1.9569,38.3762
		c1.6393,5.5275,5.6218,8.3585,10.8917,9.9171c11.525,3.4085,23.2775,3.3668,35.1229,2.6957c5.052-0.2863,7.021-2.8073,7.157-7.5825
		c0.2791-9.8057,0.5873-19.614,1.1329-29.4073c0.2384-4.2796-1.4526-5.1399-5.5148-5.2603
		c-9.2343-0.2736-18.5455-0.6976-27.6367-2.202C1023.7349,619.0961,1016.4464,616.2169,1008.183,613.8098z M1149.0841,440.4612
		c-0.1345,0.0149-0.2692,0.0297-0.4037,0.0446c0.6831,10.2613,1.2542,20.532,2.1082,30.779
		c0.3145,3.7728,2.5509,5.9414,6.6571,5.9304c4.1313-0.011,7.2024-1.4834,8.2803-5.6573c0.6609-2.5592,1.1367-5.2314,1.2097-7.8663
		c0.4001-14.4485,0.6532-28.9012,0.9504-43.3526c0.1868-9.0798-1.0206-10.2659-10.3004-10.1397
		c-0.8304,0.0113-1.661,0.1138-2.4902,0.0992c-4.6327-0.0812-6.3361,2.0109-6.1113,6.7536
		C1149.3531,424.8393,1149.0841,432.6566,1149.0841,440.4612z"/>
	<path d="M857.2658,838.2585c1.6741,0.8344,3.4033,1.5746,5.0137,2.5177c14.2609,8.3514,28.6935,16.248,45.1058,19.7386
		c8.6261,1.8345,17.1078,2.0125,25.7347-0.0793c7.6026-1.8434,15.3291-3.1819,23.0117-4.6878
		c14.216-2.7866,27.7869,1.2563,41.4672,4.0264c2.2782,0.4613,4.5269,1.1611,6.7164,1.9521
		c17.728,6.405,34.2136,1.9951,50.0542-6.1414c9.4187-4.8377,18.4208-10.4865,28.5854-16.3315
		c-2.0891-1.1679-3.0745-2.0154-4.203-2.3052c-17.7328-4.5541-35.4252-9.2876-53.2493-13.4567
		c-14.6323-3.4224-29.2295-4.0858-43.6595,1.8942c-7.3222,3.0344-15.3524,2.3788-22.6068-0.1989
		c-15.3737-5.4625-30.4562-3.3413-45.8088-0.2728c-18.5903,3.7157-37.0629,8.5055-56.2727,7.9792
		c-6.6378-0.1819-12.9592-1.4676-18.2609-5.6783c-1.2573-0.9985-1.7451-2.9656-2.5869-4.4871
		c1.5652-0.6804,3.1035-1.8788,4.6998-1.962c18.7898-0.9788,36.76-5.7337,54.6678-11.116
		c10.5055-3.1575,21.2256-5.727,31.985-7.8827c14.3641-2.8782,28.4871,1.2355,42.7289,2.2345
		c6.7001,0.47,13.9393,0.5181,20.204-1.5044c15.4476-4.9868,30.2582-3.6205,45.0317,1.7825
		c14.3875,5.2618,28.5902,11.0373,43.0392,16.1178c6.9886,2.4572,14.3496,3.8618,21.5549,5.6918
		c2.0406,0.5182,4.127,0.8563,6.1924,1.2769c0.2903,0.5065,0.5806,1.013,0.8708,1.5195c-2.0107,1.8662-3.7262,4.3971-6.0979,5.4507
		c-4.0669,1.8064-8.5156,2.7996-12.8595,3.9186c-2.5652,0.6608-3.2411,1.7925-3.9186,4.5873
		c-0.7998,3.3006-3.3987,7.1953-6.3275,8.7745c-13.8859,7.4877-28.033,14.5223-42.3108,21.243
		c-15.6019,7.344-32.0856,7.5635-48.9639,5.7345c-9.374-1.0157-19.1158-1.2946-28.4061,0.0575
		c-31.8796,4.6396-59.4209-5.8157-85.2981-22.8558c-4.2937-2.8275-8.3572-6.0714-12.1982-9.4921
		c-1.993-1.775-3.2662-4.358-4.8647-6.5759C856.4464,839.2383,856.8561,838.7484,857.2658,838.2585z"/>
	<path d="M917.9565,483.8011c7.4633,11.6172,14.5335,22.4799,21.4353,33.4484c2.21,3.5121,4.0843,7.2523,5.8693,11.0035
		c0.4745,0.9971,0.0493,2.4222,0.0371,3.6508c-1.2737-0.3766-2.9712-0.3594-3.7497-1.1965
		c-3.8448-4.1343-7.9187-8.1791-11.0353-12.8413c-6.4578-9.6602-12.284-19.741-18.5953-29.5031
		c-0.7472-1.1557-3.0909-2.2321-4.3763-1.9409c-13.9447,3.1594-27.595,0.5944-41.0394-2.4504
		c-14.4302-3.268-28.6476-7.5074-42.8876-11.5693c-6.5515-1.8688-13.2135-3.738-19.3369-6.6383
		c-12.5598-5.949-25.1102-4.3177-37.5697-0.6875c-10.3655,3.02-20.368,7.2656-30.6707,10.5285
		c-5.9908,1.8973-12.2278,3.0711-18.4083,4.2963c-3.8484,0.7628-4.2517-1.9995-2.577-4.1227
		c3.2413-4.1091,6.4915-8.9717,10.9096-11.2545c15.353-7.9327,30.9461-15.5421,46.9579-22.0123
		c11.9706-4.8372,24.9103-6.5267,37.7898-3.287c8.8687,2.2309,17.7092,4.8024,26.2604,8.023
		c22.5157,8.4799,45.4712,15.0795,69.3358,18.4862c5.9036,0.8427,11.7341,2.4544,17.4506,4.1969
		c1.7798,0.5424,3.8264,2.4568,4.3271,4.1614c0.3365,1.1452-1.5773,3.3112-2.9341,4.5124
		C922.9454,480.5558,920.3729,482.0907,917.9565,483.8011z"/>
	<path d="M819.7014,547.6742c-1.5132,0.7072-1.9303,1.0764-2.3401,1.0686c-17.9218-0.3409-35.6678-1.0795-50.7552-12.9764
		c-2.45-1.9318-6.5104-1.7883-9.7979-2.7065c-1.4548-0.4063-2.8383-1.0681-4.254-1.614c0.634-1.4641,1.0107-3.1361,1.9772-4.3314
		c0.8955-1.1075,2.3748-1.7893,3.6771-2.515c18.2524-10.1708,37.1302-18.7652,57.6218-23.5057
		c27.4355-6.3469,54.8331-5.558,82.2521-0.0483c0.8065,0.1621,1.6104,0.4413,2.3469,0.8049
		c0.3922,0.1936,0.6373,0.6852,1.9008,2.1339c-3.1775,0.5014-5.6177,0.7158-7.9583,1.3177
		c-1.4845,0.3818-2.8207,1.3404-4.2234,2.0403c0.6816,1.25,1.181,2.651,2.0732,3.7263c7.4326,8.9574,15.2739,17.5995,22.302,26.8604
		c4.6638,6.1453,3.5203,8.6148-3.6605,11.3958c-9.7549,3.7779-19.8875,5.5502-30.345,5.0113
		c-13.6389-0.7029-27.2683-1.5894-40.9034-2.3675c-4.5632-0.2605-7.9688-2.1035-11.0943-5.6978
		c-6.5546-7.5375-12.6011-15.0701-12.9956-25.6929c-0.1048-2.8237-2.1434-4.2158-4.9235-3.297
		c-9.9304,3.2822-20.3152,5.605-28.5637,12.6493c-1.1903,1.0165-1.9855,2.4955-2.9636,3.7605
		c1.4092,1.0422,2.6731,2.5866,4.2518,3.0435c8.9488,2.59,17.9936,4.8466,26.9597,7.3797
		C813.2122,544.9407,816.0009,546.2568,819.7014,547.6742z M870.0741,547.5252c0.2589,0.5857,0.5178,1.1714,0.7767,1.7571
		c8.2908-2.0059,16.616-3.8871,24.8322-6.1622c1.1321-0.3135,2.2134-2.4897,2.4834-3.9572
		c1.4713-7.9986-6.9482-23.6554-15.1794-27.4666c-0.9703,6.5443-0.9675,13.193-3.102,19.065
		C877.709,536.7469,873.4315,541.9689,870.0741,547.5252z M834.558,525.3375c3.9595-0.1237,8.6755-5.217,8.5128-10.9139
		c-0.1143-4.0025-2.8747-4.9478-6.1244-4.9513c-4.864-0.0053-9.7145,4.6484-9.3318,9.1581
		C827.8876,521.8481,828.0251,525.6414,834.558,525.3375z"/>
	<path d="M1129.2567,555.0642c11.5093-7.1515,25.422-7.8917,38.7324-13.235c-8.4077-9.1228-15.6599-17.8419-28.1677-21.9291
		c0.5193,2.8291,0.7448,4.7208,1.2219,6.5466c2.4568,9.3997-1.7919,17.1622-8.6066,21.8689
		c-10.2136,7.0543-22.2385,9.6572-34.7761,6.0392c-11.9559-3.4501-22.2301-20.6402-20.7992-34.5432
		c0.2468-2.3981,0.4025-4.8055,0.6454-7.7587c-9.8723,0.223-16.1506,4.9427-20.4056,12.3792
		c-2.3674,4.1375-3.7628,8.8365-5.5388,13.3053c-1.2405,3.1212,0.1764,4.7809,3.2183,5.2697
		c5.9138,0.9504,11.894,1.5679,17.743,2.8111c3.4738,0.7383,6.7498,2.407,10.1146,3.6573
		c-0.1368,0.9045-0.2737,1.8089-0.4105,2.7133c-10.0659,0.1873-20.1342,0.5808-30.197,0.4759
		c-5.1373-0.0535-10.2676-0.9792-15.3964-1.552c-3.5642-0.398-4.9836-2.333-4.0145-5.8613
		c2.1766-7.9243,6.2036-14.6487,12.7321-19.7858c2.0846-1.6404,4.4784-3.1117,6.0038-5.1932
		c3.3708-4.5998,1.8064-8.7384-3.2823-12.8122c2.7404-1.2161,4.6461-2.3999,6.7189-2.9276
		c15.3585-3.9094,30.9327-4.9467,46.582-2.3455c14.9318,2.482,29.8745,5.0469,44.6199,8.4181
		c5.1553,1.1786,9.8232,4.7164,14.5621,7.4404c9.802,5.6341,19.476,11.4905,29.2626,17.1517
		c2.4988,1.4454,4.512,2.8243,3.4578,6.2108c-1.031,3.3121-3.0822,3.9544-6.4481,3.8843
		c-3.4886-0.0726-7.3016,0.5431-10.4579,1.9848c-13.1268,5.9964-26.3815,11.2147-41.1685,10.563
		c-1.9854-0.0875-3.9506-0.6296-5.925-0.9612C1129.2703,556.2742,1129.2635,555.6692,1129.2567,555.0642z M1102.2018,522.32
		c0.0968-5.076-2.4929-7.8173-6.679-7.7532c-3.475,0.0533-6.3132,1.0313-6.5282,5.2157c-0.2229,4.34,2.7203,7.8908,6.6678,7.7258
		C1099.3905,527.3527,1102.0472,525.7191,1102.2018,522.32z"/>
	<path d="M824.354,279.951c6.0862-0.2359,8.0376,1.2874,9.4179,7.1814c5.1594,22.0309,10.2753,44.0723,15.5797,66.0684
		c0.9703,4.0239-1.1439,5.7078-4.1613,6.6755c-30.7258,9.8549-61.4944,19.5765-92.217,29.4414
		c-3.9594,1.2714-6.8253,0.1816-8.041-3.4906c-2.6049-7.8684-5.085-15.8091-7.0103-23.865
		c-3.8627-16.1629-7.2165-32.4469-11.018-48.6251c-0.9093-3.8697-0.2874-6.3715,3.4335-8.1225
		c10.9266-5.142,22.267-8.4909,34.2939-10.2429c8.783-1.2795,17.3204-4.3293,25.9214-6.7527
		c11.1551-3.1429,22.2646-6.4475,33.3939-9.6825C824.0825,279.008,824.2183,279.4795,824.354,279.951z M750.7479,383.0933
		c7.2974-2.103,14.1598-3.9463,20.9383-6.0591c20.9479-6.5293,41.9001-13.0497,62.7728-19.8133
		c7.406-2.3998,7.3549-3.1924,5.5392-10.4831c-2.2861-9.1789-3.8953-18.5293-6.2742-27.6815
		c-2.5898-9.9638-5.4279-19.8875-8.7495-29.6268c-1.7123-5.0208-3.6435-4.9622-8.5034-2.904
		c-5.1668,2.1881-10.5726,3.9152-16.0027,5.3596c-19.1212,5.0863-38.338,9.8159-57.4346,14.9905
		c-8.4799,2.2978-8.8724,3.338-6.9653,12.1419c2.8172,13.0047,5.7397,25.9872,8.6996,38.9603
		C746.6431,366.1956,748.6675,374.3793,750.7479,383.0933z"/>
	<path d="M1119.4832,589.4371c-14.4814-1.1698-26.0879-2.9047-36.5771-9.0319c-0.8604-0.5026-1.9205-0.8497-2.5234-1.5729
		c-2.1061-2.5261-4.0522-5.1856-6.0592-7.7944c2.7867-0.3561,5.6116-1.1974,8.3535-0.9822
		c10.4285,0.8183,20.8308,1.9721,31.2418,3.0115c10.6259,1.0609,21.2118,1.7679,31.587-1.8629
		c1.1631-0.407,3.4485-0.1789,3.8904,0.5533c0.6012,0.9958,0.4875,3.34-0.2952,4.0955c-3.4022,3.284-6.7079,7.3557-10.8893,8.988
		C1131.5175,587.4544,1124.1571,588.3618,1119.4832,589.4371z"/>
	<path d="M776.0139,394.6977c0.5999,0.4541,2.1475,1.6202,3.6846,2.8c0.1219,0.0935,0.1671,0.2842,0.2548,0.4256
		c10.4411,16.8327,8.5603,24.4243-9.126,32.8871c-9.5782,4.5831-19.6235,8.2401-29.6378,11.8114
		c-1.6094,0.5739-5.3419-0.924-6.0765-2.4406c-3.453-7.1294-6.3026-14.562-9.0814-21.9934
		c-0.3646-0.9751,0.575-2.9214,1.4954-3.8169C734.9351,407.1625,764.2535,395.0162,776.0139,394.6977z M741.1684,435.4857
		c1.1844-0.3451,2.6661-0.6412,4.041-1.1999c7.6896-3.1241,15.3613-6.293,23.0245-9.4815
		c13.1296-5.4631,13.6243-6.5366,7.603-22.2014c-0.0595-0.1548-0.1044-0.3875-0.2195-0.4374
		c-1.4868-0.644-3.3892-2.1909-4.4188-1.7435c-11.8658,5.1569-23.6544,10.5047-35.295,16.1492
		c-1.3453,0.6523-2.7208,3.7335-2.2824,5.119c1.4901,4.7089,3.7712,9.1696,5.8275,13.69
		C739.5422,435.5859,740.3873,435.4496,741.1684,435.4857z"/>
	<path d="M888.5325,567.9257c-3.7247,5.3086-8.1343,10.0664-14.5054,12.1314c-16.2633,5.2714-32.2613,3.4904-47.8337-2.9199
		c-2.6945-1.1091-5.114-3.1362-7.2791-5.1495c-0.7928-0.7372-0.4785-2.6651-0.6693-4.0498c1.228-0.1111,2.5372-0.5579,3.672-0.2835
		c19.9612,4.8275,39.8307,4.5236,59.6646-0.7505c2.0371-0.5417,4.2035-0.5975,6.3099-0.8787
		C888.1051,566.6586,888.3188,567.2922,888.5325,567.9257z"/>
	<path d="M948.8477,698.8068c10.5883-0.0295,16.4539,3.6068,18.1324,11.2444c1.3724,6.2452-1.5593,9.9431-7.8889,9.1171
		c-5.3993-0.7045-10.6445-2.5311-16.0323-3.399c-5.6489-0.9101-11.3972-1.1876-17.0787-1.9218
		c-1.6242-0.2099-3.1675-1.0461-4.7479-1.5951c0.7562-1.5336,1.1268-3.5394,2.3318-4.5237
		C930.8834,701.7501,939.2997,698.6041,948.8477,698.8068z"/>
	<path d="M968.0765,766.6139c0.429,5.2626,0.8342,10.5274,1.2956,15.7872c0.287,3.2725-1.5206,4.065-3.9155,2.7162
		c-1.8946-1.0671-4.0221-2.7943-4.7276-4.713c-3.0875-8.3975-2.8432-16.9219,0.4437-25.2783
		c0.409-1.0395,1.1811-2.0566,2.0477-2.761c0.8239-0.6697,2.3118-1.5297,2.9349-1.2054c0.9556,0.4973,1.9417,1.909,2.0009,2.983
		c0.2279,4.132,0.0923,8.2841,0.0923,12.4286C968.1912,766.5854,968.1339,766.5997,968.0765,766.6139z"/>
	<path d="M922.6599,243.6566c-1.9255-1.1039-3.9806-2.032-5.756-3.3396c-14.5543-10.7192-23.621-25.4659-30.3617-41.8515
		c-2.5314-6.1534-4.1884-12.7439-7.3312-18.5463c-3.0338-5.601-6.9717-10.9266-11.4158-15.4943
		c-5.3127-5.4606-11.6432-9.9205-17.4304-14.9323c-18.9038-16.3709-22.1012-40.8674-8.0033-61.5287
		c1.4126-2.0703,3.3594-3.7762,5.0582-5.6513c0.4487,0.2593,0.8973,0.5185,1.3459,0.7778
		c-0.4397,1.9748-0.6768,4.0218-1.3515,5.9128c-4.8721,13.6559-2.621,26.5388,5.6069,37.9212
		c6.9874,9.6665,14.7783,18.8844,23.129,27.4036c13.8041,14.0824,22.234,30.6197,25.1333,49.9451
		c1.8956,12.6348,10.3438,21.3167,17.3975,30.9066c1.7333,2.3566,3.451,4.7248,5.1759,7.0877
		C923.4578,242.7306,923.0588,243.1936,922.6599,243.6566z"/>
	<path d="M795.7073,119.1937c1.4711,3.6688,2.9961,7.3172,4.4047,11.0098c9.1183,23.9028,22.5519,44.4754,44.6614,58.4827
		c11.1102,7.0387,22.4473,13.7989,33.0156,21.5888c8.543,6.2971,16.4954,13.5972,20.7993,23.8229
		c0.2358,0.5603,0.3771,1.1604,0.9337,2.9077c-5.9945-3.9411-10.8519-7.668-16.176-10.5255
		c-11.5911-6.2211-23.5227-11.8069-35.1326-17.9948c-33.4257-17.8155-50.7395-46.4044-55.1829-83.4259
		c-0.2035-1.6951,0.2005-3.463,0.3215-5.197C794.1371,119.6395,794.9222,119.4166,795.7073,119.1937z"/>
	<path d="M698.6396,128.2104c-0.3742,2.7525-1.325,5.5732-1.0096,8.2443c0.7979,6.7568,2.2719,13.4311,3.2365,20.1725
		c0.2797,1.9551-0.2471,4.0257-0.4042,6.0433c-2.0946-1.0168-4.8649-1.4975-6.1693-3.1414
		c-6.3825-8.0435-6.7822-17.4913-5.0276-27.0852c1.0424-5.6996,2.9823-10.8461,7.4653-15.3401
		c3.5909-3.5997,5.1624-9.1634,7.8691-13.7132c1.7731-2.9805,3.9725-5.7074,5.981-8.5478c0.5942,0.2285,1.1885,0.4571,1.7827,0.6856
		c0.1811,1.683,0.2693,3.3824,0.5631,5.0454c0.5554,3.1436,2.4095,3.6763,4.4149,1.4445c1.4995-1.6687,2.3251-3.9619,3.3638-6.021
		c1.6005-3.1728,3.5984-5.5272,7.7267-4.4585c-2.3292,9.8172-4.593,19.3591-7.1681,30.2128
		c-2.3495-2.8087-3.9429-4.7137-6.5825-7.8693c-1.8055,5.2458-3.6683,9.7739-4.8674,14.4715
		c-0.726,2.8442-0.1254,6.011-0.7112,8.9138c-0.2863,1.4182-1.9213,2.5642-2.9459,3.8334
		c-1.2703-1.1034-3.1439-1.9709-3.6867-3.3588c-1.1725-2.998-1.6623-6.2629-2.4314-9.4186
		C699.5724,128.2859,699.106,128.2482,698.6396,128.2104z"/>
	<path d="M1147.8617,203.0788c19.9498-11.1114,39.8998-22.2227,59.8496-33.3341c0.2855,0.2863,0.5712,0.5725,0.8567,0.8588
		c-4.6636,4.9515-9.327,9.903-13.9906,14.8545c11.8661-1.6916,19.975-9.7787,30.2133-16.8331
		c-0.5978,2.2852-0.5911,3.4303-1.1357,4.1686c-10.6217,14.3976-22.9238,26.8617-40.3109,32.8377
		c-3.0011,1.0315-6.6685,0.0931-10.0277,0.121c-5.4023,0.0448-10.8042,0.1839-16.2064,0.1894
		c-2.884,0.0029-5.7682-0.1906-8.6522-0.2954C1148.2589,204.7903,1148.0603,203.9346,1147.8617,203.0788z"/>
	<path d="M1283.8741,312.5406c-6.7582-2.3397-36.8583-32.225-52.9336-52.5585c2.7136-0.5263,5.266-1.8898,7.0884-1.2319
		c10.6923,3.8607,22.5284,5.8349,30.3035,15.2294c5.1622,6.2373,9.7853,12.9484,14.2703,19.6996
		c1.1582,1.7434,1.1147,4.4258,1.2208,6.6957C1284.0067,304.2883,1283.8741,308.2165,1283.8741,312.5406z"/>
	<path d="M623.9297,353.1644c0.8434-3.4449,1.9779-6.8507,2.4485-10.3458c0.472-3.5053,0.1378-7.1115,0.4257-10.6516
		c0.2473-3.0399-0.0291-6.6454,1.5005-8.9608c4.7328-7.1637,9.4331-14.666,15.6163-20.471
		c7.0974-6.6632,15.7094-11.7366,23.8192-17.2725c1.1729-0.8006,3.2146-0.3284,4.8543-0.4451
		c-0.485,1.659-0.4504,3.93-1.5508,4.8643c-3.5385,3.0043-7.8633,5.1262-11.218,8.2944
		c-7.8228,7.3883-15.2806,15.1651-22.8076,22.8615c-0.6782,0.6935-0.7858,1.9449-0.1964,3.7416
		c9.2648-8.2887,18.5297-16.5774,28.5239-25.5185c0.7129,5.6914-1.2229,9.7804-4.4094,13.4728
		c-7.3903,8.5638-14.8995,17.0268-22.181,25.6817c-2.9807,3.5428-5.4246,7.5319-8.2582,11.2057
		c-1.3109,1.6996-2.9704,3.1302-4.4719,4.6828C625.3266,353.924,624.6282,353.5442,623.9297,353.1644z"/>
	<path d="M1085.7218,215.1319c34.1138-16.3927,70.506-28.531,99.7567-54.0038c0.5526,0.6035,1.1052,1.207,1.6578,1.8105
		c-1.1049,1.7823-2.0497,3.6906-3.3392,5.3272c-11.9276,15.1371-27.7848,25.1976-44.652,33.7209
		c-14.8109,7.4842-30.8085,11.5773-47.0441,14.68c-1.8627,0.356-3.8525,0.0483-5.7833,0.0483
		C1086.119,216.1873,1085.9204,215.6596,1085.7218,215.1319z"/>
	<path d="M1094.7867,195.2278c4.1467-2.3121,7.2667-4.3635,10.6294-5.8752c19.4648-8.7498,38.6671-17.97,55.7371-30.9898
		c4.0908-3.1202,7.7759-6.7688,11.6942-10.1199c2.0912-1.7884,4.2819-3.4604,6.832-5.5101
		C1179.7704,163.2546,1120.4609,200.1026,1094.7867,195.2278z"/>
	<path d="M1244.7394,229.7005c12.2275,0.3476,23.0968,4.3744,32.5284,12.2147c1.2732,1.0583,2.854,2.175,3.3762,3.6003
		c0.6611,1.8046,0.3843,3.9527,0.512,5.9527c-1.675,0.0542-3.4996,0.5707-4.9999,0.0851
		c-7.9004-2.5576-15.6384-5.6371-23.5884-8.0157c-7.9591-2.3813-16.0037-4.5034-24.5699-2.9812
		c-1.6885,0.3-3.7714-1.6199-5.6724-2.516c1.2268-1.3105,2.2179-3.2724,3.722-3.8168c5.9883-2.1673,12.1365-3.8926,18.2255-5.7816
		C1244.4283,228.8615,1244.5839,229.281,1244.7394,229.7005z"/>
	<path d="M970.2241,88.6287c-5.9945,7.4286-12.4837,14.3121-21.2389,18.7714c-4.7742,2.4317-10.2368,3.7283-12.2726,9.9785
		c-0.877,2.6927-3.7182,1.9587-4.8669-0.5099c-0.7302-1.569-0.8186-3.5621-0.7615-5.3512
		c0.3346-10.483,12.7745-25.5131,23.0122-27.6409c0.7034-0.1462,2.5052,1.6037,2.5668,2.5517
		c0.0923,1.4203-0.9057,2.9114-1.8364,5.4564c5.5358-2.0155,9.9785-3.633,14.4214-5.2505
		C969.5734,87.2989,969.8987,87.9638,970.2241,88.6287z"/>
	<path d="M959.6772,230.164c-15.7369-17.2834-2.014-78.2652,20.3688-87.8026C965.2585,170.597,955.8632,198.8775,959.6772,230.164z"
		/>
	<path d="M769.8218,110.8919c8.6116,23.2497,17.0428,46.0122,25.4475,68.7032
		C778.2562,174.1919,760.0258,126.5964,769.8218,110.8919z"/>
	<path d="M900.7281,92.5808c-12.5725,16.1371-15.8959,34.047-10.0892,53.7066c-0.4144,0.1799-0.8287,0.3599-1.2431,0.5398
		c-1.1945-0.8176-2.6442-1.4196-3.5446-2.4855c-11.1342-13.1808-8.2877-40.1783,5.481-50.502
		c2.2158-1.6614,5.355-2.0916,8.0674-3.091C899.8425,91.3594,900.2853,91.9701,900.7281,92.5808z"/>
	<path d="M710.2166,260.0317c-23.7289,8.6978-47.4578,17.3956-71.6927,26.279c4.0573-11.8144,54.5418-31.1095,71.1411-27.8787
		C709.8489,258.9652,710.0328,259.4985,710.2166,260.0317z"/>
	<path d="M764.8087,154.2676c-14.2244-11.0487-22.8033-46.3808-12.2135-55.6025c4.7157,18.7961,9.2761,36.9725,13.8363,55.1489
		C765.8906,153.9652,765.3497,154.1164,764.8087,154.2676z"/>
	<path d="M912.0648,128.3252c-2.3512-13.4114,0.481-25.4579,9.0794-35.7468c4.8644-5.8208,10.547-10.9542,19.7471-9.4983
		C929.6055,97.155,918.5334,111.2306,912.0648,128.3252z"/>
	<path d="M1281.4426,272.7044c-14.3597-8.9651-32.2606-11.6629-45.1702-25.6461
		C1250.9105,247.0938,1281.3075,264.1568,1281.4426,272.7044z"/>
	<path d="M626.1985,375.2657c-2.0801-12.1809,21.3104-46.8126,30.7915-46.7083
		C646.8621,343.9207,636.7301,359.2901,626.1985,375.2657z"/>
	<path class="st0" d="M1002.9846,640.3964c-20.7128-4.8134-40.3553-3.1066-60.1678,7.3071c0-11.4988,0.1096-21.4474-0.0338-31.3923
		c-0.1201-8.325-0.606-16.6442-0.7972-24.969c-0.1434-6.2427,1.6317-9.2607,7.3596-10.9941
		c15.2751-4.6229,30.7572-7.3649,46.8115-4.3558c4.0264,0.7547,6.2974,2.2357,6.3652,6.6367
		c0.2847,18.4804,0.7122,36.9585,1.0562,55.4381C1003.5898,638.6929,1003.2679,639.3248,1002.9846,640.3964z"/>
	<path class="st0" d="M937.5657,634.7429c0,2.8311-0.3129,5.7043,0.0623,8.4847c0.9053,6.7102-2.4698,10.098-8.3436,12.1799
		c-13.1301,4.6537-26.5226,6.1826-40.3331,4.1613c-3.5763-0.5234-5.0286-2.2294-5.2455-5.92
		c-0.5474-9.3112-1.3892-18.6102-2.35-27.8895c-0.428-4.1335,0.8582-5.8102,5.1682-6.5515
		c14.7598-2.5386,29.4753-5.3863,44.113-8.554c4.5904-0.9933,6.1477,0.3196,6.3695,4.6323
		c0.3333,6.4811,0.8264,12.9541,1.2515,19.4305C938.0272,634.7253,937.7964,634.7341,937.5657,634.7429z"/>
	<path class="st0" d="M1008.183,613.8098c8.2634,2.4071,15.5519,5.2863,23.11,6.537c9.0912,1.5043,18.4025,1.9284,27.6367,2.202
		c4.0621,0.1204,5.7532,0.9807,5.5148,5.2603c-0.5457,9.7933-0.8539,19.6016-1.1329,29.4073
		c-0.136,4.7751-2.105,7.2961-7.157,7.5825c-11.8455,0.6711-23.5979,0.7128-35.1229-2.6957
		c-5.27-1.5585-9.2524-4.3896-10.8917-9.9171C1006.3626,639.4501,1009.1042,626.5525,1008.183,613.8098z"/>
	<path class="st0" d="M1149.0841,440.4612c0-7.8046,0.269-15.6219-0.1-23.409c-0.2247-4.7428,1.4786-6.8349,6.1113-6.7536
		c0.8292,0.0146,1.6598-0.088,2.4902-0.0992c9.2798-0.1262,10.4872,1.0599,10.3004,10.1397
		c-0.2972,14.4514-0.5503,28.9041-0.9504,43.3526c-0.073,2.6349-0.5488,5.3071-1.2097,7.8663
		c-1.0779,4.1739-4.1489,5.6463-8.2803,5.6573c-4.1062,0.011-6.3427-2.1576-6.6571-5.9304
		c-0.854-10.247-1.425-20.5177-2.1082-30.779C1148.8149,440.4909,1148.9496,440.476,1149.0841,440.4612z"/>
	<path class="st0" d="M870.0741,547.5252c3.3574-5.5563,7.6349-10.7783,9.8108-16.764c2.1345-5.8719,2.1317-12.5206,3.102-19.065
		c8.2313,3.8112,16.6507,19.468,15.1794,27.4666c-0.27,1.4675-1.3513,3.6437-2.4834,3.9572
		c-8.2162,2.2751-16.5414,4.1564-24.8322,6.1622C870.5919,548.6966,870.333,548.1109,870.0741,547.5252z"/>
	<path class="st0" d="M834.558,525.3375c-6.533,0.3039-6.6704-3.4894-6.9434-6.7071c-0.3826-4.5097,4.4678-9.1635,9.3318-9.1581
		c3.2497,0.0035,6.0101,0.9488,6.1244,4.9513C843.2335,520.1205,838.5175,525.2137,834.558,525.3375z"/>
	<path class="st0" d="M1102.2018,522.32c-0.1545,3.3991-2.8113,5.0327-6.5393,5.1884c-3.9475,0.165-6.8907-3.3858-6.6678-7.7258
		c0.215-4.1844,3.0532-5.1624,6.5282-5.2157C1099.7089,514.5027,1102.2986,517.244,1102.2018,522.32z"/>
	<path class="st0" d="M750.7479,383.0933c-2.0804-8.714-4.1049-16.8977-5.9798-25.1155
		c-2.9599-12.9732-5.8824-25.9556-8.6996-38.9603c-1.9072-8.8039-1.5146-9.8441,6.9653-12.1419
		c19.0966-5.1747,38.3134-9.9042,57.4346-14.9905c5.4302-1.4445,10.8359-3.1715,16.0027-5.3596
		c4.8599-2.0581,6.7911-2.1168,8.5034,2.904c3.3217,9.7394,6.1597,19.663,8.7495,29.6268
		c2.3789,9.1523,3.9882,18.5026,6.2742,27.6815c1.8157,7.2907,1.8668,8.0833-5.5392,10.4831
		c-20.8727,6.7636-41.8249,13.284-62.7728,19.8133C764.9077,379.147,758.0453,380.9904,750.7479,383.0933z"/>
	<path class="st0" d="M741.1684,435.4857c-0.7811-0.0362-1.6262,0.1001-1.7197-0.1055c-2.0563-4.5204-4.3375-8.9811-5.8275-13.69
		c-0.4384-1.3856,0.9371-4.4667,2.2824-5.119c11.6406-5.6445,23.4291-10.9923,35.295-16.1492
		c1.0297-0.4475,2.932,1.0995,4.4188,1.7435c0.1152,0.0499,0.16,0.2827,0.2195,0.4374c6.0214,15.6648,5.5266,16.7383-7.603,22.2014
		c-7.6632,3.1885-15.3349,6.3575-23.0245,9.4815C743.8345,434.8445,742.3528,435.1407,741.1684,435.4857z"/>
</g>
</svg>
